<svg width="139" height="55" viewBox="0 0 139 55" fill="none" xmlns="http://www.w3.org/2000/svg">
<path d="M29.9516 4.06901C30.1215 4.19831 30.3464 4.21428 30.5296 4.12648L32.5186 5.65097L33.5781 17.1797C33.4015 17.277 33.2882 17.4654 33.3082 17.6713C33.3348 17.9555 33.5947 18.1646 33.8912 18.1391C34.1877 18.1135 34.4059 17.8645 34.3793 17.5804C34.361 17.3728 34.2144 17.2068 34.0228 17.1414L33.7979 14.6942L40.911 8.98091L43.4431 9.25073C43.5064 9.43588 43.678 9.57956 43.8929 9.60191C44.1877 9.6338 44.4542 9.42946 44.4876 9.14695C44.5209 8.86436 44.3077 8.60896 44.0128 8.57708C43.7979 8.55472 43.598 8.65685 43.493 8.82447L40.7711 8.53554L33.7496 14.1754L32.9467 5.43068L30.8094 3.79124C30.8594 3.60128 30.7944 3.39376 30.6245 3.26445C30.393 3.08726 30.0548 3.12238 29.8683 3.34427C29.6833 3.56616 29.72 3.89182 29.9516 4.06901Z" fill="white"/>
<path d="M27.9743 0.98334V13.4475L25.5904 11.5447L26.0035 7.04142C26.1952 6.976 26.3401 6.80996 26.36 6.60243C26.3867 6.31829 26.1668 6.06926 25.8719 6.04372C25.5755 6.01818 25.3156 6.22889 25.289 6.51144C25.2706 6.71896 25.3822 6.90734 25.5588 7.00312L25.124 11.7299L27.9743 14.0046V19.7881L28.4207 19.7897V15.4445L31.2709 13.1681L30.8361 8.44138C31.0127 8.34401 31.126 8.15569 31.106 7.94977C31.0793 7.66559 30.8194 7.4565 30.5229 7.48203C30.2265 7.50757 30.0082 7.75661 30.0349 8.04072C30.0532 8.24823 30.1981 8.41426 30.3913 8.47975L30.8045 12.983L28.419 14.8874V0.98334C28.6039 0.901925 28.7338 0.72314 28.7338 0.515615C28.7338 0.231468 28.4923 0 28.1958 0C27.8992 0 27.6577 0.231468 27.6577 0.515615C27.6594 0.72314 27.7893 0.901925 27.9743 0.98334Z" fill="white"/>
<path d="M26.4433 49.9731C26.2734 49.8437 26.0485 49.8294 25.8652 49.9156L23.8762 48.3911L22.8168 36.8623C22.9933 36.765 23.1066 36.5766 23.0866 36.3707C23.0599 36.0865 22.8001 35.8775 22.5035 35.903C22.2071 35.9285 21.9888 36.1776 22.0155 36.4617C22.0338 36.6692 22.1804 36.8352 22.3719 36.9007L22.5968 39.3479L15.4838 45.0612L12.9517 44.7913C12.8884 44.6062 12.7168 44.4641 12.502 44.4402C12.2071 44.4083 11.9405 44.6125 11.9072 44.8951C11.8739 45.1776 12.0871 45.4331 12.382 45.465C12.5969 45.4873 12.7968 45.3852 12.9017 45.2176L15.6237 45.5065L22.6435 39.8682L23.4464 48.613L25.5853 50.2524C25.5354 50.4424 25.6003 50.6499 25.7702 50.7792C26.0018 50.9564 26.3399 50.9213 26.5265 50.6994C26.7114 50.4759 26.6748 50.1503 26.4433 49.9731Z" fill="white"/>
<path d="M28.421 53.0592V40.595L30.8065 42.4994L30.3933 47.0027C30.2018 47.0681 30.0569 47.2342 30.0368 47.4417C30.0102 47.7258 30.2301 47.9748 30.5249 48.0003C30.8215 48.0259 31.0813 47.8152 31.108 47.5327C31.1263 47.3251 31.0147 47.1368 30.8381 47.041L31.2729 42.3142L28.4227 40.0379V36.6361L28.4143 34.1746H27.9762V38.598L25.126 40.8743L25.5608 45.6011C25.3842 45.6985 25.2709 45.8868 25.2909 46.0928C25.3175 46.3769 25.5774 46.586 25.874 46.5605C26.1705 46.535 26.3887 46.2859 26.362 46.0017C26.3437 45.7942 26.1988 45.6282 26.0056 45.5628L25.5924 41.0595L27.9779 39.1551V53.0592C27.793 53.1406 27.663 53.3193 27.663 53.5269C27.663 53.811 27.9046 54.0425 28.2011 54.0425C28.4976 54.0425 28.7392 53.811 28.7392 53.5269C28.7358 53.3193 28.6059 53.1406 28.421 53.0592Z" fill="white"/>
<path d="M52.905 28.6224C52.6735 28.4452 52.3353 28.4803 52.1487 28.7022C52.0138 28.865 51.9971 29.0805 52.0887 29.2561L50.4979 31.1621L38.4672 32.1774C38.3657 32.0082 38.169 31.8996 37.9542 31.9188C37.6576 31.9443 37.4394 32.1934 37.4661 32.4775C37.4928 32.7617 37.7526 32.9708 38.0491 32.9452C38.2657 32.9277 38.4389 32.7888 38.5073 32.6036L41.061 32.3881L47.023 39.2044L46.7414 41.6309C46.5482 41.6916 46.4 41.856 46.375 42.0619C46.3416 42.3444 46.5549 42.5998 46.8497 42.6318C47.1445 42.6637 47.4111 42.4594 47.4444 42.1768C47.4677 41.9709 47.3611 41.7793 47.1862 41.6788L47.4877 39.0704L41.6041 32.3434L50.7294 31.574L52.4402 29.5259C52.6385 29.5738 52.855 29.5115 52.99 29.3487C53.1749 29.1252 53.1366 28.7996 52.905 28.6224Z" fill="white"/>
<path d="M41.6021 21.7006L47.4258 15.0439L47.4874 14.9736L47.1859 12.3652C47.3608 12.2647 47.4691 12.0747 47.4441 11.8672C47.4108 11.5846 47.1459 11.3803 46.8494 11.4122C46.5545 11.4441 46.3413 11.698 46.3746 11.9821C46.398 12.188 46.5479 12.3525 46.7411 12.4131L47.0226 14.8396L39.2649 23.7088C39.0683 23.6577 38.8501 23.7136 38.7102 23.8732C38.5186 24.0919 38.5486 24.4159 38.7768 24.5995C39.005 24.7831 39.3432 24.7543 39.5348 24.5356C39.6747 24.376 39.6947 24.1605 39.6081 23.9833L41.2539 22.1013L50.4992 22.8803L52.0901 24.7863C51.9985 24.9602 52.0135 25.1774 52.15 25.3402C52.335 25.5621 52.6748 25.5988 52.9064 25.42C53.1379 25.2412 53.1763 24.9172 52.9897 24.6953C52.8547 24.5325 52.6365 24.4718 52.4399 24.5181L50.7291 22.4684L41.6021 21.7006Z" fill="white"/>
<path d="M55.857 26.5056C55.6405 26.5056 55.4539 26.63 55.3689 26.8073H42.3621L44.3495 24.5229L49.0488 24.9188C49.117 25.1024 49.2903 25.2413 49.5068 25.2604C49.8034 25.2859 50.0632 25.0752 50.0899 24.7926C50.1165 24.5101 49.8967 24.2595 49.6018 24.234C49.3852 24.2164 49.1886 24.3233 49.0887 24.4925L44.1562 24.0759L41.7807 26.8073H39.367C39.282 26.63 39.0954 26.5056 38.8789 26.5056C38.5823 26.5056 38.3408 26.737 38.3408 27.0211C38.3408 27.3053 38.5823 27.5367 38.8789 27.5367C39.0954 27.5367 39.282 27.4122 39.367 27.235H40.2781L42.6519 29.9664L47.5845 29.5498C47.6861 29.719 47.8827 29.8275 48.0976 29.8083C48.3941 29.7828 48.6123 29.5338 48.5856 29.2497C48.559 28.9655 48.2991 28.7564 48.0026 28.7819C47.7861 28.7994 47.6128 28.9399 47.5445 29.1235L42.8452 29.5194L40.8595 27.235H55.3689C55.4539 27.4122 55.6405 27.5367 55.857 27.5367C56.1535 27.5367 56.3951 27.3053 56.3951 27.0211C56.3951 26.737 56.1535 26.5056 55.857 26.5056Z" fill="white"/>
<path d="M3.49014 25.4199C3.72169 25.5971 4.05986 25.562 4.24643 25.3401C4.38136 25.1773 4.39802 24.9618 4.3064 24.7862L5.89727 22.8802L17.9279 21.8649C18.0295 22.0341 18.2261 22.1427 18.441 22.1235C18.7375 22.0979 18.9557 21.849 18.929 21.5648C18.9024 21.2806 18.6425 21.0715 18.346 21.0971C18.1295 21.1147 17.9562 21.2535 17.8879 21.4387L15.3342 21.6542L9.37215 14.8378L9.65371 12.4115C9.84693 12.3507 9.99523 12.1864 10.0202 11.9804C10.0535 11.6979 9.8403 11.4425 9.54543 11.4105C9.25056 11.3786 8.98405 11.583 8.95072 11.8655C8.9274 12.0714 9.03402 12.263 9.20895 12.3636L8.90739 14.9735L14.7911 21.7005L5.66572 22.4699L3.95491 24.5196C3.75668 24.4717 3.54012 24.534 3.40519 24.6968C3.22028 24.9171 3.25859 25.2428 3.49014 25.4199Z" fill="white"/>
<path d="M14.7922 32.3418L8.96848 38.9985L8.90685 39.0687L9.20835 41.6771C9.03341 41.7777 8.92514 41.9677 8.95012 42.1752C8.98345 42.4578 9.2483 42.662 9.54483 42.6301C9.8397 42.5982 10.0529 42.3444 10.0196 42.0602C9.99628 41.8543 9.84632 41.6899 9.6531 41.6292L9.37162 39.2028L17.1293 30.3336C17.3259 30.3846 17.5441 30.3288 17.6841 30.1691C17.8757 29.9504 17.8456 29.6264 17.6174 29.4428C17.3892 29.2592 17.0511 29.288 16.8595 29.5066C16.7196 29.6663 16.6996 29.8818 16.7862 30.059L15.1403 31.9411L5.895 31.1621L4.30414 29.2561C4.39576 29.082 4.38076 28.8649 4.24417 28.7021C4.05925 28.4802 3.71943 28.4435 3.48788 28.6223C3.25633 28.7995 3.21802 29.1252 3.40458 29.347C3.53952 29.5099 3.75775 29.5705 3.95431 29.5242L5.66511 31.5739L14.7922 32.3418Z" fill="white"/>
<path d="M14.0313 27.235L12.0439 29.5193L7.34464 29.1234C7.27632 28.9399 7.10311 28.801 6.88654 28.7819C6.59002 28.7563 6.33015 28.967 6.3035 29.2495C6.27685 29.5337 6.49673 29.7828 6.79158 29.8083C7.00816 29.8258 7.20469 29.7189 7.30468 29.5496L12.2372 29.9647L14.6127 27.2334H17.0264C17.1114 27.4106 17.298 27.5351 17.5145 27.5351C17.8111 27.5351 18.0526 27.3036 18.0526 27.0195C18.0526 26.7353 17.8111 26.5038 17.5145 26.5038C17.298 26.5038 17.1114 26.6284 17.0264 26.8055H16.1153L13.7415 24.0742L8.80891 24.4909C8.70727 24.3217 8.51073 24.2131 8.29584 24.2322C7.99931 24.2578 7.78111 24.5068 7.80775 24.791C7.83439 25.0752 8.09427 25.2843 8.3908 25.2587C8.60734 25.2411 8.78055 25.1023 8.84887 24.9171L13.5482 24.5212L15.5339 26.8055H1.02615C0.94119 26.6284 0.754621 26.5038 0.538063 26.5038C0.241545 26.5038 0 26.7353 0 27.0195C0 27.3036 0.241545 27.5351 0.538063 27.5351C0.754621 27.5351 0.94119 27.4106 1.02615 27.2334H14.0313V27.235Z" fill="white"/>
<path d="M38.0559 17.2706L37.7743 14.3094L41.3892 11.4057C41.5724 11.4887 41.799 11.4695 41.9656 11.3355C42.1938 11.1519 42.2238 10.8278 42.0322 10.6092C41.8407 10.3905 41.5025 10.3617 41.2743 10.5453C41.1077 10.6794 41.0477 10.8885 41.1027 11.0769L37.3079 14.1243L37.6444 17.6649L35.4389 19.7785C35.2473 19.7114 35.0257 19.7497 34.8708 19.8966C34.6609 20.0977 34.6609 20.425 34.8708 20.6261C35.0807 20.8273 35.4222 20.8273 35.6321 20.6261C35.7854 20.4793 35.8253 20.2653 35.7554 20.0834L36.8981 18.9883L40.5929 19.3108L43.773 15.6743C43.9696 15.7254 44.1878 15.6695 44.3277 15.5099C44.5193 15.2912 44.4893 14.9671 44.2611 14.7836C44.0328 14.5999 43.6947 14.6287 43.5031 14.8474C43.3632 15.007 43.3433 15.2225 43.4299 15.3997L40.3997 18.8638L37.3096 18.594L47.5694 8.76216C47.761 8.82924 47.9826 8.79094 48.1375 8.64409C48.3474 8.44293 48.3474 8.1157 48.1375 7.91454C47.9276 7.71338 47.5861 7.71338 47.3762 7.91454C47.2229 8.06139 47.183 8.27531 47.253 8.45729L38.0559 17.2706Z" fill="white"/>
<path d="M18.3391 36.7717L18.6206 39.7329L15.0058 42.6366C14.8225 42.5536 14.596 42.5728 14.4294 42.7068C14.2012 42.8904 14.1712 43.2145 14.3628 43.4332C14.5544 43.6519 14.8925 43.6806 15.1207 43.4971C15.2873 43.363 15.3473 43.1538 15.2923 42.9654L19.0871 39.918L18.7506 36.3774L20.3465 34.8481C20.538 34.9152 20.7595 34.8768 20.9128 34.73C21.1227 34.5288 21.1227 34.2016 20.9128 34.0005C20.7029 33.7993 20.3614 33.7993 20.1515 34.0005C19.9983 34.1473 19.9583 34.3612 20.0283 34.5432L19.4952 35.054L15.8004 34.7315L12.6204 38.368C12.4237 38.3169 12.2055 38.3728 12.0656 38.5324C11.874 38.7511 11.904 39.0752 12.1323 39.2587C12.3605 39.4424 12.6986 39.4136 12.8902 39.1949C13.0301 39.0353 13.0501 38.8198 12.9635 38.6426L15.9936 35.1785L19.0838 35.4483L8.82389 45.2801C8.63232 45.2131 8.41074 45.2514 8.25754 45.3983C8.04762 45.5994 8.04762 45.9267 8.25754 46.1278C8.46739 46.3289 8.80891 46.3289 9.01876 46.1278C9.17203 45.9809 9.21206 45.767 9.14208 45.585L18.3391 36.7717Z" fill="white"/>
<path d="M43.8929 44.4405C43.678 44.4628 43.5064 44.6065 43.4431 44.7917L40.911 45.0615L31.6557 37.6273C31.709 37.4389 31.6507 37.2299 31.4841 37.0958C31.2559 36.9122 30.9177 36.9409 30.7261 37.1596C30.5346 37.3783 30.5646 37.7024 30.7928 37.886C30.9594 38.0201 31.1843 38.0392 31.3692 37.9562L33.3332 39.5333L32.5203 48.393L30.5313 49.9175C30.3497 49.8297 30.1231 49.8441 29.9532 49.975C29.7217 50.1522 29.6834 50.4778 29.8699 50.6997C30.0565 50.9216 30.3946 50.9583 30.6262 50.7795C30.7961 50.6502 30.8594 50.4411 30.8111 50.2527L32.9484 48.6133L33.7513 39.8686L40.6978 45.4494L40.7711 45.5084L43.4931 45.2195C43.598 45.3871 43.7962 45.4909 44.0128 45.467C44.3076 45.435 44.5209 45.1812 44.4875 44.897C44.4543 44.6129 44.1877 44.4086 43.8929 44.4405Z" fill="white"/>
<path d="M47.5677 45.2814L38.3706 36.468L41.4624 36.1982L44.4926 39.6623C44.4059 39.8379 44.4259 40.055 44.5659 40.2146C44.7574 40.4333 45.0956 40.4621 45.3238 40.2784C45.552 40.0949 45.582 39.7708 45.3904 39.5521C45.2505 39.3925 45.0323 39.335 44.8357 39.3877L41.6557 35.7512L37.9608 36.0737L35.3388 33.5611L35.0023 33.2387L34.6258 32.8779L33.6197 31.9136L33.2266 31.5369L32.5752 31.5178L32.99 31.9153L34.3127 33.1828L34.6892 33.5435L35.0257 33.866L36.5848 35.3602L36.2483 38.9008L40.0431 41.9482C39.9898 42.1366 40.0481 42.3457 40.2147 42.4798C40.4429 42.6634 40.7811 42.6346 40.9726 42.4159C41.1643 42.1973 41.1342 41.8732 40.906 41.6896C40.7394 41.5556 40.5145 41.5364 40.3297 41.6194L36.7148 38.7157L36.9963 35.7528L47.2545 45.5831C47.1828 45.7666 47.2229 45.9805 47.3778 46.1274C47.5876 46.3286 47.9292 46.3286 48.1391 46.1274C48.3489 45.9263 48.3489 45.5991 48.1391 45.3979C47.9824 45.2511 47.7593 45.2127 47.5677 45.2814Z" fill="white"/>
<path d="M12.502 9.60194C12.7168 9.57958 12.8884 9.43598 12.9517 9.25076L15.4838 8.98101L24.7391 16.4151C24.6858 16.6035 24.7441 16.8126 24.9107 16.9467C25.1389 17.1303 25.4771 17.1015 25.6686 16.8828C25.8602 16.6641 25.8303 16.3401 25.602 16.1565C25.4354 16.0224 25.2105 16.0032 25.0256 16.0863L23.0616 14.5091L23.8745 5.64945L25.8635 4.12495C26.0451 4.21274 26.2717 4.19838 26.4416 4.06748C26.6731 3.89028 26.7114 3.56463 26.5249 3.34274C26.3399 3.12085 26.0001 3.08414 25.7686 3.26293C25.5987 3.39223 25.5354 3.60135 25.5837 3.78971L23.4464 5.42915L22.6435 14.1738L15.697 8.59305L15.6237 8.53405L12.9017 8.82298C12.7968 8.65536 12.5986 8.55157 12.382 8.57552C12.0871 8.60747 11.8739 8.86128 11.9072 9.14539C11.9405 9.42956 12.2071 9.63389 12.502 9.60194Z" fill="white"/>
<path d="M8.82535 8.76058L18.0224 17.574L14.9323 17.8437L11.9021 14.3797C11.9887 14.2025 11.9688 13.987 11.8288 13.8273C11.6373 13.6086 11.2991 13.5799 11.0709 13.7635C10.8427 13.9471 10.8127 14.2711 11.0043 14.4898C11.1442 14.6495 11.3624 14.7069 11.559 14.6543L14.739 18.2907L18.4339 17.9682L24.3275 23.6161L24.5624 23.2345L24.4742 23.1499L24.2776 22.9616L22.0853 20.8608L21.7089 20.5L21.3723 20.1776L19.8132 18.6834L20.1497 15.1428L16.3549 12.0953C16.4082 11.907 16.3499 11.6978 16.1833 11.5637C15.9551 11.3802 15.617 11.4089 15.4254 11.6276C15.2338 11.8463 15.2638 12.1704 15.492 12.354C15.6586 12.488 15.8835 12.5072 16.0684 12.4242L19.6832 15.3279L19.4017 18.2907L9.14355 8.45887C9.21518 8.27531 9.17515 8.06139 9.02023 7.91454C8.81038 7.71338 8.46886 7.71338 8.259 7.91454C8.04908 8.1157 8.04908 8.44293 8.259 8.64409C8.4122 8.79094 8.63544 8.82924 8.82535 8.76058Z" fill="white"/>
<path d="M36.5148 26.4928C36.3099 26.4928 36.1316 26.6013 36.0367 26.761H31.8921V23.8493L33.5763 22.2354C33.7612 22.2832 33.9677 22.2402 34.1127 22.1013C34.3275 21.8954 34.3275 21.5601 34.1127 21.3526C33.8961 21.1467 33.548 21.1467 33.3314 21.3526C33.1864 21.4915 33.1398 21.6894 33.1915 21.8666L31.8921 23.1118V19.5232L28.4688 19.5009V18.5C28.6354 18.4089 28.7487 18.2397 28.7487 18.0418C28.7487 17.7497 28.5022 17.5134 28.1973 17.5134C27.8924 17.5134 27.6459 17.7497 27.6459 18.0418C27.6459 18.2381 27.7592 18.4074 27.9258 18.5V19.4993L26.678 19.4913L24.3076 22.925L22.1037 20.813C22.1537 20.6359 22.1087 20.4395 21.9638 20.2991C21.7489 20.0931 21.3991 20.0931 21.1825 20.2991C20.9659 20.505 20.9676 20.8402 21.1825 21.0477C21.3274 21.1866 21.534 21.2297 21.7189 21.1818L23.9994 23.3672L23.1198 24.6426C23.1182 24.6426 23.1182 24.6426 23.1182 24.6426C22.9266 24.6299 22.7334 24.7129 22.6184 24.8789C22.4502 25.1215 22.5202 25.4504 22.775 25.6116C23.0282 25.7728 23.3714 25.7058 23.5396 25.4616C23.6529 25.2972 23.6579 25.0928 23.5713 24.93L24.3926 23.7423L24.4192 23.7024L24.6707 23.3384L24.6991 23.2986L26.9679 20.0117L27.9258 20.0181L27.9741 20.0197L28.4205 20.0212L28.4688 20.0229L31.349 20.042V27.283H34.3226V31.3919H33.1432H32.3752H31.349V34.0323H28.4688H27.9258H27.1112V31.3919H22.0737V26.761H20.3596C20.2647 26.6013 20.0864 26.4928 19.8815 26.4928C19.5766 26.4928 19.3301 26.7291 19.3301 27.0212C19.3301 27.3133 19.5783 27.5496 19.8815 27.5496C20.0864 27.5496 20.2629 27.4426 20.3596 27.2814H21.5323V31.9124H22.7117L22.2003 32.4024C22.0154 32.3545 21.8105 32.3961 21.6639 32.5365C21.449 32.7425 21.449 33.0777 21.6639 33.2852C21.8805 33.4911 22.2286 33.4911 22.4452 33.2852C22.5918 33.1447 22.6368 32.9484 22.5851 32.7712L22.5868 32.7696L23.4813 31.9124H26.5715V34.5527H27.9291V35.544C27.7625 35.635 27.6492 35.8042 27.6492 36.0021C27.6492 36.2943 27.8958 36.5305 28.2006 36.5305C28.5055 36.5305 28.752 36.2943 28.752 36.0021C28.752 35.8058 28.6387 35.635 28.4722 35.544V34.5543H31.8954V31.914H32.9216L34.2959 33.2309C34.2459 33.4081 34.2909 33.606 34.4358 33.745C34.6507 33.9509 35.0006 33.9509 35.2171 33.745C35.432 33.539 35.432 33.2038 35.2171 32.9963C35.0722 32.8574 34.8656 32.8143 34.6807 32.8621L33.6896 31.9124H34.869V27.2814H36.0417C36.1367 27.441 36.3132 27.5496 36.5198 27.5496C36.8247 27.5496 37.0712 27.3133 37.0712 27.0212C37.0678 26.7291 36.8196 26.4928 36.5148 26.4928Z" fill="white"/>
<path d="M23.1714 27.2908V30.4387H27.8674V32.9003H27.924H28.467H29.1434C29.2383 33.0599 29.4182 33.1684 29.6248 33.1684C29.9297 33.1684 30.1762 32.9306 30.1762 32.64C30.1762 32.3479 29.9279 32.1117 29.6248 32.1117C29.4199 32.1117 29.24 32.2202 29.1434 32.3798H28.467H28.4104V29.9183H27.924H23.7144V27.4488L24.0742 26.9268L24.1892 26.7608L24.8305 25.8317C25.0221 25.8444 25.2153 25.7615 25.3303 25.5955C25.4985 25.3528 25.4286 25.0239 25.1737 24.8627C24.9205 24.7015 24.5774 24.7685 24.4091 25.0127C24.2958 25.1772 24.2908 25.3815 24.3774 25.5444L23.1764 27.2828L23.1714 27.2908Z" fill="white"/>
<path d="M28.4687 21.1514L27.9256 21.1482L27.4175 21.145L26.9444 21.8299C26.7529 21.8187 26.5596 21.9017 26.4464 22.0661C26.2764 22.3104 26.3481 22.6376 26.603 22.7988C26.8562 22.9601 27.1993 22.893 27.3676 22.6488C27.4808 22.4843 27.4859 22.2816 27.3975 22.1172L27.7091 21.667L27.9273 21.6687L28.4703 21.6718L29.908 21.6814V28.4418H32.6816V29.9185H31.214C31.1191 29.7588 30.9392 29.6503 30.7325 29.6503C30.6992 29.6503 30.6693 29.6519 30.6376 29.6582C30.6176 29.6615 30.5993 29.6647 30.5809 29.6694C30.3494 29.7333 30.1812 29.9376 30.1812 30.177C30.1812 30.4708 30.4294 30.7054 30.7325 30.7054C30.9374 30.7054 31.1173 30.5985 31.214 30.4373H33.2263V27.9183H30.4511V21.161L28.4687 21.1514Z" fill="white"/>
<path d="M29.227 24.7115C29.227 24.4194 28.9805 24.1831 28.6756 24.1831C28.6023 24.1831 28.5323 24.1975 28.4674 24.2231C28.4507 24.2294 28.4341 24.2358 28.4191 24.2438C28.2425 24.3332 28.1226 24.5088 28.1226 24.7131C28.1226 24.7387 28.1242 24.7626 28.1292 24.7866C28.1525 24.9525 28.2575 25.093 28.404 25.1729V27.652C28.2358 27.7429 28.1242 27.9154 28.1242 28.1133C28.1242 28.3352 28.2675 28.5251 28.469 28.6034C28.5323 28.6289 28.604 28.6433 28.6772 28.6433C28.9005 28.6433 29.0937 28.514 29.1787 28.3304C29.212 28.265 29.2287 28.1916 29.2287 28.1133C29.2287 27.917 29.117 27.7445 28.9488 27.652V25.1729C29.1154 25.0819 29.227 24.9095 29.227 24.7115Z" fill="white"/>
<path d="M65.3571 33.0599C65.3571 33.3504 65.2988 33.5995 65.1805 33.8086C65.0622 34.0177 64.899 34.1773 64.6908 34.2891C64.4826 34.4008 64.2393 34.4567 63.9645 34.4567H62.8667V31.7158H63.8412C64.326 31.7158 64.6991 31.8323 64.9623 32.0654C65.2255 32.2985 65.3571 32.6289 65.3571 33.0599ZM64.8957 33.0599C64.8957 32.7358 64.8041 32.4884 64.6225 32.3176C64.4409 32.1468 64.1761 32.0622 63.8329 32.0622H63.3232V34.1103H63.9178C64.1161 34.1103 64.2894 34.0672 64.4359 33.9826C64.5825 33.8964 64.6958 33.7751 64.7757 33.6186C64.8557 33.4606 64.8957 33.2754 64.8957 33.0599Z" fill="white"/>
<path d="M68.5904 33.0727C68.5904 33.3632 68.5321 33.6154 68.4155 33.8278C68.2989 34.04 68.1323 34.2045 67.9191 34.321C67.7058 34.4375 67.4526 34.495 67.1594 34.495C66.8663 34.495 66.6131 34.4375 66.3998 34.3242C66.1866 34.2109 66.0233 34.0464 65.9084 33.8341C65.7935 33.6218 65.7368 33.368 65.7368 33.0743C65.7368 32.7806 65.7935 32.5299 65.9067 32.3224C66.02 32.1149 66.1833 31.9552 66.3965 31.8435C66.6097 31.7317 66.8663 31.6759 67.1644 31.6759C67.461 31.6759 67.7158 31.7317 67.9291 31.8419C68.1423 31.9521 68.3056 32.1117 68.4205 32.3208C68.5338 32.5283 68.5904 32.779 68.5904 33.0727ZM68.1239 33.0727C68.1239 32.747 68.0406 32.4916 67.8724 32.3048C67.7042 32.1181 67.4693 32.0255 67.1644 32.0255C66.8579 32.0255 66.6197 32.1164 66.4515 32.3001C66.2832 32.4836 66.1999 32.7406 66.1999 33.0711C66.1999 33.2898 66.2382 33.4798 66.3149 33.6394C66.3915 33.799 66.5014 33.9235 66.6463 34.0097C66.7896 34.0959 66.9612 34.1406 67.1611 34.1406C67.471 34.1406 67.7091 34.048 67.8757 33.8612C68.0406 33.6777 68.1239 33.4143 68.1239 33.0727ZM66.9179 31.0996V31.4812H66.563V31.0996H66.9179ZM67.7558 31.0996V31.4812H67.4027V31.0996H67.7558Z" fill="white"/>
<path d="M69.5584 33.3521V34.4567H69.1016V31.7158H70.4741C70.8026 31.7158 71.0572 31.7844 71.236 31.9233C71.414 32.0622 71.5037 32.2586 71.5037 32.5108C71.5037 32.7103 71.4437 32.8795 71.3236 33.0184C71.2042 33.1573 71.0393 33.2467 70.8295 33.285L71.6286 34.4567H71.1055L70.3892 33.3521H69.5584ZM71.0427 32.5203C71.0427 32.3703 70.991 32.2553 70.8861 32.1787C70.7812 32.1005 70.6273 32.0622 70.4279 32.0622H69.5598V33.0072H70.4445C70.6363 33.0072 70.784 32.9641 70.8875 32.8795C70.991 32.7933 71.0427 32.6736 71.0427 32.5203Z" fill="white"/>
<path d="M74.594 33.0599C74.594 33.3504 74.536 33.5995 74.4173 33.8086C74.2993 34.0177 74.1358 34.1773 73.9281 34.2891C73.7197 34.4008 73.4761 34.4567 73.2014 34.4567H72.1035V31.7158H73.0786C73.563 31.7158 73.9364 31.8323 74.1993 32.0654C74.4629 32.2969 74.594 32.6289 74.594 33.0599ZM74.1344 33.0599C74.1344 32.7358 74.0426 32.4884 73.8611 32.3176C73.6783 32.1468 73.4147 32.0622 73.0717 32.0622H72.5617V34.1103H73.1566C73.3546 34.1103 73.5278 34.0672 73.6748 33.9826C73.8211 33.8964 73.9343 33.7751 74.0143 33.6186C74.093 33.4606 74.1344 33.2754 74.1344 33.0599Z" fill="white"/>
<path d="M76.2634 34.495C76.0205 34.495 75.8101 34.4535 75.6341 34.3705C75.4574 34.2875 75.3208 34.1678 75.2256 34.0129C75.1303 33.8581 75.082 33.6697 75.082 33.451V31.7158H75.5402V33.4143C75.5402 33.6537 75.6023 33.8357 75.7273 33.9603C75.8522 34.0847 76.0316 34.1454 76.2669 34.1454C76.5098 34.1454 76.6982 34.0816 76.8314 33.9523C76.9646 33.8229 77.0315 33.6362 77.0315 33.3903V31.7158H77.4876V33.4175C77.4876 33.6425 77.438 33.8341 77.3393 33.9954C77.2413 34.1566 77.0998 34.2795 76.9163 34.3657C76.7348 34.4519 76.5167 34.495 76.2634 34.495ZM76.0419 31.0996V31.4812H75.6872V31.0996H76.0419ZM76.8797 31.0996V31.4812H76.5264V31.0996H76.8797Z" fill="white"/>
<path d="M78.5134 32.7039V34.4567H78.1069V31.7158H78.6355L80.0875 33.9922C80.0695 33.7559 80.0592 33.5739 80.0592 33.4462V31.7174H80.4691V34.4583H79.9232L78.4885 32.1979C78.4934 32.2904 78.4989 32.3783 78.5051 32.4629C78.5099 32.5443 78.5134 32.6257 78.5134 32.7039Z" fill="white"/>
<path d="M82.4082 34.1409C82.7967 34.1409 83.081 33.9558 83.2632 33.587L83.6462 33.753C83.531 33.9988 83.366 34.1824 83.1514 34.3085C82.9361 34.433 82.6849 34.4969 82.3951 34.4969C82.1004 34.4969 81.8472 34.4394 81.6374 34.326C81.4269 34.2127 81.2654 34.0483 81.1523 33.8344C81.0405 33.6205 80.9839 33.3683 80.9839 33.0745C80.9839 32.7808 81.0391 32.5286 81.1488 32.3195C81.2592 32.1103 81.4186 31.9507 81.6284 31.8406C81.8368 31.7305 82.0901 31.6746 82.3847 31.6746C82.7001 31.6746 82.9616 31.7336 83.168 31.8534C83.3743 31.9731 83.5247 32.1486 83.6179 32.3802L83.1963 32.5047C83.1376 32.353 83.0382 32.2349 82.8961 32.1519C82.7546 32.0689 82.5883 32.0257 82.393 32.0257C82.0922 32.0257 81.8589 32.1183 81.6954 32.3019C81.5318 32.4855 81.4504 32.7425 81.4504 33.0713C81.4504 33.29 81.489 33.48 81.5656 33.6396C81.6422 33.7993 81.7519 33.9222 81.8955 34.01C82.0383 34.0978 82.2102 34.1409 82.4082 34.1409Z" fill="white"/>
<path d="M85.2688 34.495C85.0252 34.495 84.8154 34.4535 84.6388 34.3705C84.4621 34.2875 84.3255 34.1678 84.2309 34.0129C84.1357 33.8581 84.0874 33.6697 84.0874 33.451V31.7158H84.5456V33.4143C84.5456 33.6537 84.607 33.8357 84.7319 33.9603C84.8575 34.0847 85.037 34.1454 85.2723 34.1454C85.5152 34.1454 85.7036 34.0816 85.8368 33.9523C85.9699 33.8229 86.0369 33.6362 86.0369 33.3903V31.7158H86.493V33.4175C86.493 33.6425 86.4433 33.8341 86.3446 33.9954C86.2467 34.1566 86.1052 34.2795 85.9216 34.3657C85.7401 34.4519 85.5221 34.495 85.2688 34.495ZM85.0473 31.0996V31.4812H84.6926V31.0996H85.0473ZM85.8864 31.0996V31.4812H85.5338V31.0996H85.8864Z" fill="white"/>
<path d="M90.5395 33.6875C90.5395 33.9462 90.436 34.1441 90.2296 34.2846C90.0226 34.4251 89.7266 34.4953 89.3436 34.4953C88.6383 34.4953 88.2291 34.2575 88.1152 33.7801L88.559 33.7019C88.6004 33.86 88.6866 33.9765 88.8205 34.0499C88.9516 34.1234 89.1317 34.1601 89.3615 34.1601C89.5982 34.1601 89.7797 34.1218 89.9046 34.0467C90.0295 33.9717 90.093 33.86 90.093 33.7147C90.093 33.6284 90.0709 33.5599 90.0261 33.504C89.9826 33.4497 89.9198 33.405 89.8377 33.3699C89.7714 33.3395 89.69 33.314 89.5899 33.29C89.4913 33.2661 89.3767 33.2421 89.2483 33.2134C89.1 33.1815 88.9799 33.1512 88.8854 33.1224C88.7901 33.0953 88.7135 33.065 88.6535 33.0346C88.5935 33.0043 88.5417 32.9724 88.4955 32.9389C88.4168 32.8798 88.3568 32.8064 88.314 32.7218C88.2705 32.6372 88.2505 32.5366 88.2505 32.4201C88.2505 32.1806 88.3457 31.9954 88.5355 31.8677C88.7253 31.74 88.9965 31.6746 89.3532 31.6746C89.6879 31.6746 89.9433 31.724 90.1178 31.823C90.2911 31.922 90.409 32.0896 90.4725 32.3243L90.0261 32.3929C89.9881 32.2572 89.915 32.1567 89.8066 32.0928C89.6983 32.0289 89.5451 31.997 89.3484 31.997C89.1352 31.997 88.9737 32.0306 88.8633 32.096C88.7522 32.1615 88.697 32.262 88.697 32.3929C88.697 32.4727 88.7184 32.5398 88.7632 32.5908C88.8067 32.6436 88.8716 32.6866 88.9551 32.7233C89.0351 32.7585 89.2035 32.8032 89.4602 32.8574C89.5782 32.883 89.6879 32.9086 89.7928 32.9357C89.8977 32.9612 89.9916 32.9916 90.0744 33.0266C90.1309 33.049 90.1848 33.0745 90.2345 33.1049C90.2841 33.1352 90.3262 33.1687 90.3628 33.207C90.4194 33.2661 90.4643 33.3332 90.496 33.413C90.5243 33.4928 90.5395 33.5838 90.5395 33.6875Z" fill="white"/>
<path d="M93.1566 32.8558C93.1249 32.5957 93.0317 32.3913 92.8771 32.2444C92.7218 32.0976 92.519 32.0242 92.2705 32.0242C92.0759 32.0242 91.9138 32.064 91.784 32.1439C91.6543 32.2237 91.5528 32.3386 91.4811 32.4887L91.056 32.3658C91.1561 32.1423 91.3079 31.9715 91.5128 31.8534C91.7157 31.7352 91.969 31.6746 92.2719 31.6746C92.5673 31.6746 92.8185 31.7368 93.0269 31.8614C93.2215 31.9747 93.3698 32.1343 93.4733 32.3435C93.5769 32.551 93.6279 32.7952 93.6279 33.0745C93.6279 33.3603 93.5734 33.6109 93.463 33.8248C93.3533 34.0404 93.1966 34.2064 92.9903 34.3213C92.7853 34.4378 92.5438 34.4953 92.2671 34.4953C91.9876 34.4953 91.744 34.4378 91.539 34.3229C91.3341 34.2096 91.1761 34.0435 91.0677 33.8296C90.9594 33.6141 90.9062 33.3635 90.9062 33.0745C90.9062 33.0426 90.9076 33.0075 90.9097 32.9708C90.9111 32.9341 90.9145 32.8958 90.918 32.8558H93.1566ZM92.2671 34.1585C92.5438 34.1585 92.7605 34.0771 92.9151 33.9126C93.0703 33.7482 93.1531 33.5151 93.1683 33.2134H91.3562C91.3762 33.512 91.4659 33.7434 91.626 33.9094C91.7854 34.0755 92.0007 34.1585 92.2671 34.1585Z" fill="white"/>
<path d="M94.5393 32.7039V34.4567H94.1328V31.7158H94.6607L96.1133 33.9922C96.0947 33.7559 96.0851 33.5739 96.0851 33.4462V31.7174H96.495V34.4583H95.9484L94.5137 32.1979C94.5193 32.2904 94.5241 32.3783 94.531 32.4629C94.5358 32.5443 94.5393 32.6257 94.5393 32.7039Z" fill="white"/>
<path d="M97.626 33.6874L97.321 34.4553H96.8545L97.9786 31.7144H98.5086L99.6217 34.4553H99.16L98.8571 33.6874H97.626ZM98.2402 32.0432C98.2202 32.1087 98.1953 32.1837 98.167 32.2683C98.1387 32.3513 98.1125 32.4215 98.0904 32.4758L97.7475 33.3538H98.735L98.3851 32.463C98.3671 32.4151 98.3437 32.3545 98.3188 32.281C98.294 32.206 98.2691 32.1262 98.2402 32.0432Z" fill="white"/>
<path d="M100.944 33.3235V34.4553H100.488V33.3235L99.4165 31.7144H99.9092L100.717 32.9707L101.527 31.7144H102.02L100.944 33.3235Z" fill="white"/>
<path d="M104.704 34.1057V34.4553H102.425V31.7144H104.621V32.0639H102.882V32.8797H104.497V33.2277H102.882V34.1057H104.704Z" fill="white"/>
<path d="M106.837 31.716V34.4568H106.38V31.716H106.837ZM106.826 31.0151V31.3727H106.394V31.0151H106.826Z" fill="white"/>
<path d="M107.912 32.7039V34.4567H107.506V31.7158H108.034L109.486 33.9922C109.468 33.7559 109.458 33.5739 109.458 33.4462V31.7174H109.868V34.4583H109.321L107.887 32.1979C107.892 32.2904 107.897 32.3783 107.904 32.4629C107.911 32.5443 107.912 32.6257 107.912 32.7039Z" fill="white"/>
<path d="M113.231 33.0728C113.231 33.325 113.187 33.5501 113.098 33.7465C113.008 33.9428 112.88 34.1008 112.713 34.2238C112.547 34.3467 112.345 34.4249 112.11 34.4616C112.163 34.6133 112.234 34.7234 112.322 34.7905C112.41 34.8575 112.525 34.891 112.666 34.891C112.745 34.891 112.823 34.883 112.902 34.8671L112.9 35.1704C112.762 35.2007 112.627 35.2167 112.497 35.2167C112.287 35.2167 112.114 35.1608 111.979 35.0475C111.842 34.9342 111.732 34.7458 111.647 34.4808C111.379 34.4632 111.151 34.3962 110.963 34.2764C110.774 34.1567 110.629 33.9955 110.529 33.7895C110.43 33.5836 110.379 33.3442 110.379 33.0712C110.379 32.7775 110.436 32.5269 110.549 32.3193C110.663 32.1118 110.826 31.9522 111.039 31.8405C111.252 31.7287 111.509 31.6729 111.807 31.6729C112.109 31.6729 112.367 31.7287 112.579 31.8421C112.792 31.9554 112.953 32.115 113.064 32.3241C113.175 32.5348 113.231 32.7839 113.231 33.0728ZM112.763 33.0728C112.763 32.7472 112.68 32.4918 112.512 32.305C112.343 32.1182 112.109 32.0256 111.804 32.0256C111.497 32.0256 111.259 32.1166 111.091 32.3002C110.922 32.4838 110.839 32.7407 110.839 33.0712C110.839 33.2899 110.878 33.4799 110.954 33.6395C111.031 33.7991 111.141 33.9237 111.284 34.0115C111.428 34.0992 111.599 34.1424 111.799 34.1424C112.109 34.1424 112.347 34.0498 112.513 33.863C112.68 33.6778 112.763 33.4144 112.763 33.0728Z" fill="white"/>
<path d="M114.227 31.716V34.4568H113.771V31.716H114.227ZM114.217 31.0151V31.3727H113.784V31.0151H114.217Z" fill="white"/>
<path d="M116.83 34.1057V34.4553H114.897V31.7144H115.354V34.1041H116.83V34.1057Z" fill="white"/>
<path d="M117.775 33.6874L117.47 34.4553H117.004L118.129 31.7144H118.659L119.771 34.4553H119.309L119.007 33.6874H117.775ZM118.39 32.0432C118.37 32.1087 118.345 32.1837 118.317 32.2683C118.289 32.3513 118.262 32.4215 118.241 32.4758L117.897 33.3538H118.885L118.535 32.463C118.517 32.4151 118.494 32.3545 118.468 32.281C118.443 32.206 118.417 32.1262 118.39 32.0432Z" fill="white"/>
<path d="M122.454 33.6794C122.454 33.9253 122.359 34.1169 122.17 34.2525C121.982 34.3882 121.719 34.4553 121.384 34.4553H120.133V31.7144H121.261C121.601 31.7144 121.856 31.7703 122.029 31.8836C122.201 31.9969 122.287 32.1646 122.287 32.388C122.287 32.5476 122.241 32.6818 122.147 32.7919C122.054 32.902 121.919 32.9755 121.744 33.0122C121.972 33.0377 122.149 33.1096 122.27 33.2277C122.394 33.3458 122.454 33.4959 122.454 33.6794ZM121.827 32.4455C121.827 32.305 121.779 32.206 121.681 32.1454C121.585 32.0863 121.441 32.056 121.253 32.056H120.592V32.8605H121.255C121.449 32.8605 121.593 32.827 121.687 32.7568C121.781 32.6897 121.827 32.5843 121.827 32.4455ZM121.992 33.6475C121.992 33.3474 121.771 33.1957 121.326 33.1957H120.592V34.1153H121.354C121.576 34.1153 121.738 34.0753 121.839 33.9971C121.941 33.9189 121.992 33.8024 121.992 33.6475Z" fill="white"/>
<path d="M123.469 31.7158V34.4567H123.013V31.7158H123.469Z" fill="white"/>
<path d="M124.544 32.7039V34.4567H124.138V31.7158H124.666L126.118 33.9922C126.1 33.7559 126.09 33.5739 126.09 33.4462V31.7174H126.5V34.4583H125.953L124.519 32.1979C124.524 32.2904 124.529 32.3783 124.536 32.4629C124.543 32.5443 124.544 32.6257 124.544 32.7039Z" fill="white"/>
<path d="M127.626 31.7158V34.4567H127.169V31.7158H127.626Z" fill="white"/>
<path d="M128.702 32.7039V34.4567H128.295V31.7158H128.824L130.277 33.9922C130.258 33.7559 130.248 33.5739 130.248 33.4462V31.7174H130.658V34.4583H130.112L128.677 32.1979C128.682 32.2904 128.687 32.3783 128.694 32.4629C128.698 32.5443 128.702 32.6257 128.702 32.7039Z" fill="white"/>
<path d="M64.2876 37.9563V40.346H63.8312V37.9563H62.8667V37.6067H65.2489V37.9563H64.2876Z" fill="white"/>
<path d="M67.7642 38.7465C67.7325 38.4863 67.6393 38.282 67.4844 38.1351C67.3295 37.9882 67.1262 37.9148 66.878 37.9148C66.6831 37.9148 66.5215 37.9547 66.3916 38.0345C66.2616 38.1143 66.1601 38.2293 66.0884 38.3793L65.6636 38.2564C65.7635 38.0329 65.9152 37.8621 66.12 37.744C66.3233 37.6258 66.5765 37.5652 66.8797 37.5652C67.1746 37.5652 67.4261 37.6275 67.6343 37.752C67.8292 37.8653 67.9775 38.025 68.0808 38.2341C68.184 38.4416 68.2357 38.6858 68.2357 38.9652C68.2357 39.2509 68.1807 39.5015 68.0708 39.7155C67.9608 39.931 67.8042 40.097 67.5976 40.2119C67.3928 40.3285 67.1512 40.3859 66.8746 40.3859C66.5948 40.3859 66.3516 40.3285 66.1467 40.2135C65.9418 40.1002 65.7836 39.9342 65.6753 39.7202C65.567 39.5064 65.5137 39.2542 65.5137 38.9652C65.5137 38.9333 65.5153 38.8981 65.517 38.8614C65.5187 38.8247 65.522 38.7864 65.5253 38.7465H67.7642ZM66.8746 40.0491C67.1529 40.0491 67.3678 39.9677 67.5227 39.8032C67.6776 39.6389 67.7609 39.4058 67.7759 39.1041H65.9635C65.9835 39.4026 66.0734 39.634 66.2334 39.8001C66.3932 39.9661 66.6081 40.0491 66.8746 40.0491Z" fill="white"/>
<path d="M69.1967 39.1089V40.3476H68.7402V37.6067H69.1967V38.7432H70.6445V37.6067H71.1027V40.3476H70.6445V39.1089H69.1967Z" fill="white"/>
<path d="M73.6746 39.9962V40.3458H71.7417V37.605H72.1985V39.9947H73.6746V39.9962Z" fill="white"/>
<path d="M74.6139 37.6065V40.3475H74.1577V37.6065H74.6139ZM74.6042 36.9058V37.2633H74.1708V36.9058H74.6042Z" fill="white"/>
<path d="M77.2161 39.9962V40.3458H75.2832V37.605H75.74V39.9947H77.2161V39.9962Z" fill="white"/>
<path d="M78.1575 37.6065V40.3475H77.7007V37.6065H78.1575ZM78.1458 36.9058V37.2633H77.7124V36.9058H78.1458Z" fill="white"/>
<path d="M82.4118 37.6067L81.2842 40.3476H80.8156L79.6846 37.6067H80.1642L80.8888 39.4792C80.9177 39.5511 80.944 39.6276 80.9709 39.7123C80.9957 39.7953 81.024 39.883 81.0537 39.9757C81.0875 39.8687 81.1158 39.7729 81.142 39.6899C81.1689 39.6069 81.1938 39.5366 81.2159 39.4792L81.937 37.6067H82.4118Z" fill="white"/>
<path d="M84.8692 38.7465C84.8375 38.4863 84.7443 38.282 84.589 38.1351C84.4345 37.9882 84.2309 37.9148 83.9824 37.9148C83.7878 37.9148 83.6264 37.9547 83.4966 38.0345C83.3662 38.1143 83.2648 38.2293 83.193 38.3793L82.7686 38.2564C82.868 38.0329 83.0198 37.8621 83.2247 37.744C83.4283 37.6258 83.6816 37.5652 83.9845 37.5652C84.2792 37.5652 84.5311 37.6275 84.7388 37.752C84.9341 37.8653 85.0824 38.025 85.1853 38.2341C85.2888 38.4416 85.3405 38.6858 85.3405 38.9652C85.3405 39.2509 85.2853 39.5015 85.1756 39.7155C85.0659 39.931 84.9092 40.097 84.7022 40.2119C84.4972 40.3285 84.2557 40.3859 83.9797 40.3859C83.6995 40.3859 83.4566 40.3285 83.2517 40.2135C83.0467 40.1002 82.888 39.9342 82.7803 39.7202C82.672 39.5064 82.6182 39.2542 82.6182 38.9652C82.6182 38.9333 82.6202 38.8981 82.6216 38.8614C82.6237 38.8247 82.6264 38.7864 82.6299 38.7465H84.8692ZM83.9797 40.0491C84.2578 40.0491 84.4724 39.9677 84.6277 39.8032C84.7823 39.6389 84.8657 39.4058 84.8809 39.1041H83.0681C83.0881 39.4026 83.1778 39.634 83.3379 39.8001C83.498 39.9661 83.7126 40.0491 83.9797 40.0491Z" fill="white"/>
<path d="M87.4578 39.3148V40.3476H87.001V37.6067H87.4578V38.9364L88.8069 37.6067H89.3438L88.1258 38.788L89.4853 40.3476H88.9284L87.8242 39.0466L87.4578 39.3148Z" fill="white"/>
<path d="M92.5722 38.9634C92.5722 39.254 92.5136 39.5062 92.397 39.7185C92.2803 39.9308 92.114 40.0952 91.9008 40.2118C91.6875 40.3283 91.4343 40.3858 91.141 40.3858C90.8477 40.3858 90.5945 40.3283 90.3812 40.215C90.168 40.1017 90.0051 39.9372 89.8899 39.7249C89.7753 39.5126 89.7188 39.2587 89.7188 38.965C89.7188 38.6713 89.7753 38.4207 89.8885 38.2132C90.0017 38.0056 90.1652 37.846 90.3785 37.7343C90.5917 37.6225 90.8477 37.5667 91.1458 37.5667C91.4426 37.5667 91.6979 37.6225 91.9104 37.7327C92.1237 37.8428 92.2872 38.0024 92.4025 38.2115C92.5156 38.4191 92.5722 38.6697 92.5722 38.9634ZM92.1057 38.9634C92.1057 38.6378 92.0222 38.3824 91.8539 38.1956C91.6862 38.0089 91.4509 37.9162 91.1458 37.9162C90.8394 37.9162 90.6014 38.0073 90.433 38.1908C90.2646 38.3744 90.1818 38.6314 90.1818 38.9619C90.1818 39.1805 90.2198 39.3705 90.2963 39.5301C90.3729 39.6897 90.4834 39.8143 90.6283 39.9005C90.7711 39.9867 90.943 40.0314 91.1431 40.0314C91.4529 40.0314 91.691 39.9388 91.8573 39.752C92.0222 39.5684 92.1057 39.305 92.1057 38.9634Z" fill="white"/>
<path d="M95.8046 38.9634C95.8046 39.254 95.7467 39.5062 95.63 39.7185C95.5134 39.9308 95.3471 40.0952 95.1339 40.2118C94.9207 40.3283 94.6674 40.3858 94.3741 40.3858C94.0808 40.3858 93.8276 40.3283 93.6143 40.215C93.4011 40.1017 93.2375 39.9372 93.123 39.7249C93.0078 39.5126 92.9512 39.2587 92.9512 38.965C92.9512 38.6713 93.0077 38.4207 93.1209 38.2132C93.2348 38.0056 93.3976 37.846 93.6109 37.7343C93.8241 37.6225 94.0808 37.5667 94.3789 37.5667C94.6757 37.5667 94.9303 37.6225 95.1435 37.7327C95.3568 37.8428 95.5203 38.0024 95.6349 38.2115C95.7481 38.4191 95.8046 38.6697 95.8046 38.9634ZM95.3382 38.9634C95.3382 38.6378 95.2553 38.3824 95.087 38.1956C94.9186 38.0089 94.684 37.9162 94.3789 37.9162C94.0725 37.9162 93.8345 38.0073 93.6661 38.1908C93.4977 38.3744 93.4142 38.6314 93.4142 38.9619C93.4142 39.1805 93.4529 39.3705 93.5295 39.5301C93.6061 39.6897 93.7158 39.8143 93.8607 39.9005C94.0042 39.9867 94.1761 40.0314 94.3755 40.0314C94.6853 40.0314 94.9234 39.9388 95.0904 39.752C95.2553 39.5684 95.3382 39.305 95.3382 38.9634Z" fill="white"/>
<path d="M96.7732 39.2429V40.3476H96.3164V37.6067H97.6897C98.0175 37.6067 98.2721 37.6754 98.4508 37.8142C98.6289 37.9531 98.7186 38.1494 98.7186 38.4017C98.7186 38.6012 98.6592 38.7704 98.5392 38.9093C98.4191 39.0482 98.2541 39.1376 98.0444 39.1759L98.8435 40.3476H98.3204L97.6041 39.2429H96.7732ZM98.2576 38.4112C98.2576 38.2612 98.2038 38.1463 98.1009 38.0696C97.9961 37.9914 97.8429 37.9531 97.6427 37.9531H96.7732V38.8981H97.6579C97.8491 38.8981 97.9974 38.855 98.1009 38.7704C98.2058 38.6842 98.2576 38.5645 98.2576 38.4112Z" fill="white"/>
<path d="M101.809 38.9508C101.809 39.2413 101.751 39.4904 101.632 39.6995C101.514 39.9086 101.351 40.0683 101.143 40.18C100.932 40.2917 100.691 40.3476 100.416 40.3476H99.3184V37.6067H100.293C100.778 37.6067 101.151 37.7232 101.414 37.9563C101.677 38.1893 101.809 38.5198 101.809 38.9508ZM101.349 38.9508C101.349 38.6268 101.257 38.3793 101.076 38.2085C100.894 38.0377 100.63 37.9531 100.287 37.9531H99.7766V40.0012H100.371C100.569 40.0012 100.743 39.9581 100.89 39.8735C101.036 39.7889 101.149 39.666 101.229 39.5095C101.309 39.3515 101.349 39.1663 101.349 38.9508Z" fill="white"/>
<path d="M102.806 37.6065V40.3475H102.35V37.6065H102.806ZM102.797 36.9058V37.2633H102.363V36.9058H102.797Z" fill="white"/>
<path d="M103.881 38.5948V40.3476H103.475V37.6067H104.003L105.455 39.883C105.437 39.6468 105.427 39.4648 105.427 39.3371V37.6083H105.837V40.3492H105.291L103.856 38.0888C103.861 38.1814 103.867 38.2692 103.873 38.3538C103.88 38.4352 103.881 38.5166 103.881 38.5948Z" fill="white"/>
<path d="M106.97 39.578L106.665 40.3458H106.198L107.322 37.605H107.852L108.965 40.3458H108.504L108.201 39.578H106.97ZM107.584 37.9338C107.565 37.9992 107.539 38.0742 107.511 38.1589C107.482 38.2419 107.456 38.3121 107.434 38.3664L107.091 39.2444H108.079L107.73 38.3536C107.711 38.3058 107.687 38.2451 107.663 38.1717C107.638 38.0966 107.611 38.0168 107.584 37.9338Z" fill="white"/>
<path d="M111.598 39.5782C111.598 39.8368 111.495 40.0348 111.289 40.1752C111.082 40.3157 110.785 40.3859 110.402 40.3859C109.698 40.3859 109.288 40.1481 109.175 39.6708L109.618 39.5926C109.659 39.7506 109.746 39.8671 109.879 39.9406C110.011 40.014 110.191 40.0507 110.42 40.0507C110.657 40.0507 110.839 40.0124 110.963 39.9373C111.088 39.8623 111.152 39.7506 111.152 39.6053C111.152 39.5191 111.13 39.4505 111.086 39.3946C111.042 39.3403 110.979 39.2956 110.897 39.2605C110.83 39.2302 110.749 39.2047 110.649 39.1807C110.551 39.1568 110.436 39.1328 110.307 39.1041C110.159 39.0722 110.039 39.0418 109.944 39.0131C109.849 38.9859 109.772 38.9556 109.712 38.9253C109.653 38.895 109.601 38.863 109.554 38.8295C109.476 38.7704 109.416 38.697 109.373 38.6124C109.329 38.5278 109.309 38.4272 109.309 38.3107C109.309 38.0712 109.405 37.8861 109.594 37.7583C109.784 37.6307 110.056 37.5652 110.412 37.5652C110.747 37.5652 111.002 37.6147 111.177 37.7137C111.35 37.8126 111.469 37.9803 111.532 38.2149L111.086 38.2836C111.047 38.1479 110.974 38.0473 110.865 37.9834C110.757 37.9196 110.604 37.8877 110.407 37.8877C110.194 37.8877 110.033 37.9212 109.923 37.9866C109.811 38.0521 109.756 38.1526 109.756 38.2836C109.756 38.3634 109.778 38.4304 109.823 38.4815C109.866 38.5342 109.931 38.5773 110.014 38.614C110.094 38.6491 110.262 38.6938 110.519 38.7481C110.637 38.7736 110.747 38.7992 110.852 38.8263C110.957 38.8518 111.05 38.8822 111.134 38.9173C111.191 38.9397 111.244 38.9652 111.293 38.9955C111.344 39.0259 111.385 39.0593 111.422 39.0977C111.478 39.1568 111.523 39.2238 111.555 39.3036C111.582 39.3851 111.598 39.476 111.598 39.5782Z" fill="white"/>
<path d="M112.585 37.6065V40.3475H112.129V37.6065H112.585ZM112.575 36.9058V37.2633H112.142V36.9058H112.575Z" fill="white"/>
<path d="M114.547 39.2158V40.3476H114.091V39.2158L113.02 37.6067H113.513L114.321 38.863L115.13 37.6067H115.623L114.547 39.2158Z" fill="white"/>
<path d="M116.186 39.578L115.881 40.3458H115.416L116.54 37.605H117.07L118.182 40.3458H117.72L117.417 39.578H116.186ZM116.801 37.9338C116.781 37.9992 116.756 38.0742 116.728 38.1589C116.7 38.2419 116.673 38.3121 116.651 38.3664L116.308 39.2444H117.296L116.946 38.3536C116.927 38.3058 116.905 38.2451 116.879 38.1717C116.854 38.0966 116.828 38.0168 116.801 37.9338Z" fill="white"/>
<path d="M119.901 38.5756V40.3476H119.495V37.6067H120.101L120.78 39.385C120.804 39.4648 120.829 39.5478 120.854 39.6357C120.879 39.7234 120.898 39.7937 120.911 39.8479C120.922 39.808 120.936 39.7586 120.953 39.7027C120.969 39.6452 120.987 39.5894 121.004 39.535C121.022 39.4808 121.036 39.4393 121.044 39.4106L121.719 37.6067H122.315V40.3476H121.905V38.5756C121.905 38.4959 121.907 38.4032 121.911 38.3011C121.913 38.1989 121.919 38.0935 121.925 37.9866C121.885 38.1223 121.851 38.2405 121.82 38.341C121.788 38.4431 121.76 38.5261 121.735 38.5932L121.072 40.3476H120.748L120.078 38.5932L119.885 37.9866C119.888 38.1015 119.893 38.2085 119.896 38.3059C119.898 38.4032 119.901 38.4943 119.901 38.5756Z" fill="white"/>
<path d="M125.072 38.7465C125.041 38.4863 124.947 38.282 124.792 38.1351C124.637 37.9882 124.434 37.9148 124.186 37.9148C123.991 37.9148 123.829 37.9547 123.699 38.0345C123.569 38.1143 123.468 38.2293 123.396 38.3793L122.971 38.2564C123.071 38.0329 123.223 37.8621 123.428 37.744C123.631 37.6258 123.884 37.5652 124.188 37.5652C124.482 37.5652 124.733 37.6275 124.942 37.752C125.137 37.8653 125.285 38.025 125.388 38.2341C125.492 38.4416 125.544 38.6858 125.544 38.9652C125.544 39.2509 125.488 39.5015 125.379 39.7155C125.268 39.931 125.112 40.097 124.905 40.2119C124.7 40.3285 124.459 40.3859 124.182 40.3859C123.903 40.3859 123.659 40.3285 123.454 40.2135C123.25 40.1002 123.091 39.9342 122.983 39.7202C122.874 39.5047 122.821 39.2542 122.821 38.9652C122.821 38.9333 122.823 38.8981 122.825 38.8614C122.826 38.8247 122.83 38.7864 122.833 38.7465H125.072ZM124.184 40.0491C124.461 40.0491 124.677 39.9677 124.832 39.8032C124.987 39.6389 125.07 39.4058 125.085 39.1041H123.271C123.291 39.4026 123.381 39.634 123.541 39.8001C123.701 39.9661 123.916 40.0491 124.184 40.0491Z" fill="white"/>
<path d="M126.504 39.2429V40.3476H126.048V37.6067H127.42C127.749 37.6067 128.004 37.6754 128.182 37.8142C128.36 37.9531 128.45 38.1494 128.45 38.4017C128.45 38.6012 128.39 38.7704 128.27 38.9093C128.15 39.0482 127.985 39.1376 127.775 39.1759L128.575 40.3476H128.052L127.336 39.2429H126.504ZM127.988 38.4112C127.988 38.2612 127.935 38.1463 127.832 38.0696C127.727 37.9914 127.574 37.9531 127.373 37.9531H126.504V38.8981H127.389C127.581 38.8981 127.729 38.855 127.832 38.7704C127.937 38.6842 127.988 38.5645 127.988 38.4112Z" fill="white"/>
<path d="M129.506 39.3148V40.3476H129.05V37.6067H129.506V38.9364L130.856 37.6067H131.392L130.174 38.788L131.533 40.3476H130.977L129.872 39.0466L129.506 39.3148Z" fill="white"/>
<path d="M134.016 38.7465C133.984 38.4863 133.891 38.282 133.736 38.1351C133.581 37.9882 133.378 37.9148 133.13 37.9148C132.935 37.9148 132.773 37.9547 132.643 38.0345C132.513 38.1143 132.412 38.2293 132.34 38.3793L131.915 38.2564C132.015 38.0329 132.167 37.8621 132.372 37.744C132.575 37.6258 132.828 37.5652 133.131 37.5652C133.426 37.5652 133.678 37.6275 133.886 37.752C134.081 37.8653 134.229 38.025 134.333 38.2341C134.436 38.4416 134.487 38.6858 134.487 38.9652C134.487 39.2509 134.432 39.5015 134.322 39.7155C134.213 39.931 134.056 40.097 133.849 40.2119C133.645 40.3285 133.403 40.3859 133.126 40.3859C132.846 40.3859 132.603 40.3285 132.398 40.2135C132.193 40.1002 132.035 39.9342 131.927 39.7202C131.819 39.5047 131.766 39.2542 131.766 38.9652C131.766 38.9333 131.767 38.8981 131.768 38.8614C131.77 38.8247 131.774 38.7864 131.777 38.7465H134.016ZM133.126 40.0491C133.403 40.0491 133.619 39.9677 133.774 39.8032C133.929 39.6389 134.013 39.4058 134.028 39.1041H132.215C132.235 39.4026 132.325 39.634 132.485 39.8001C132.645 39.9661 132.858 40.0491 133.126 40.0491Z" fill="white"/>
<path d="M137.084 39.9948V40.3476H134.8V40.0267L136.476 37.9595H134.95V37.6067H136.993V37.9196L135.316 39.9948H137.084Z" fill="white"/>
<path d="M138.016 37.6065V40.3475H137.56V37.6065H138.016ZM138.006 36.9058V37.2633H137.573V36.9058H138.006Z" fill="white"/>
<path d="M70.3466 25.2236V27.4872H68.1408V25.2236H62.8667V23.5602L67.7626 16.3767H70.3466V23.5746H71.8937V25.222H70.3466V25.2236ZM64.7508 23.5746H68.1408V19.9397C68.1408 19.6556 68.1507 19.3491 68.1691 19.0171C68.1873 18.6866 68.204 18.4728 68.214 18.3786C68.1424 18.5254 68.0424 18.7058 67.9142 18.9181C67.7859 19.1304 67.6277 19.3763 67.4411 19.6556L64.7508 23.5746Z" fill="white"/>
<path d="M82.9018 24.285C82.9018 25.3737 82.4802 26.2054 81.639 26.78C80.7977 27.3563 79.5618 27.6436 77.9325 27.6436C74.9969 27.6436 73.2897 26.6268 72.8066 24.5914L75.1522 24.2211C75.3102 24.8102 75.6215 25.2364 76.0818 25.5029C76.5427 25.7679 77.181 25.9004 77.9988 25.9004C78.8483 25.9004 79.4852 25.7775 79.9082 25.5301C80.3313 25.2827 80.541 24.9123 80.541 24.419C80.541 24.103 80.4444 23.8427 80.2526 23.6384C80.0614 23.4341 79.7861 23.2633 79.43 23.126C79.2533 23.0574 78.9966 22.9824 78.6571 22.9009C78.3169 22.8195 77.8939 22.7285 77.3895 22.6295C76.8077 22.4987 76.353 22.3869 76.0231 22.2944C75.6932 22.2017 75.4317 22.1123 75.2336 22.0261C75.037 21.9399 74.8438 21.8441 74.6574 21.7388C74.2461 21.5026 73.9246 21.1865 73.6948 20.7922C73.4643 20.3979 73.3497 19.9062 73.3497 19.3171C73.3497 18.3131 73.7431 17.5452 74.5305 17.0105C75.3185 16.4773 76.4634 16.2107 77.9657 16.2107C79.4031 16.2107 80.4824 16.4262 81.2042 16.8572C81.9253 17.2883 82.3898 18.0002 82.5982 18.9947L80.2443 19.3028C80.1228 18.8239 79.8779 18.4647 79.508 18.2221C79.1381 17.9794 78.6067 17.8597 77.916 17.8597C77.181 17.8597 76.6297 17.9698 76.2612 18.1918C75.8934 18.412 75.7098 18.7441 75.7098 19.1847C75.7098 19.4736 75.7885 19.7099 75.9451 19.895C76.1018 20.0786 76.3329 20.2367 76.6393 20.3676C76.9292 20.4937 77.5523 20.6533 78.5067 20.848C79.0601 20.9646 79.5384 21.0731 79.9379 21.1753C80.3375 21.2775 80.659 21.3764 80.9006 21.4706C81.1421 21.5712 81.3574 21.6749 81.5472 21.7867C81.7369 21.8969 81.8984 22.0149 82.0371 22.1411C82.3166 22.3981 82.5298 22.7046 82.6782 23.059C82.8266 23.4134 82.9018 23.822 82.9018 24.285Z" fill="white"/>
<path d="M87.113 16.3769V27.4858H84.686V16.3769H87.113ZM87.073 13.6567V15.2882H84.7613V13.6567H87.073Z" fill="white"/>
<path d="M91.8604 20.7524V27.4857H89.7046V16.3768H92.9549L95.0292 22.5897C95.1224 22.9362 95.219 23.2858 95.317 23.6353C95.4157 23.9849 95.5123 24.3329 95.6054 24.6794C95.6655 24.4798 95.7235 24.2819 95.7787 24.0839C95.8332 23.886 95.8904 23.6881 95.947 23.4885C96.005 23.2889 96.0637 23.091 96.123 22.8963L98.254 16.3752H101.487V27.4841H99.3319V20.7524C99.3319 20.6007 99.3381 20.2943 99.3519 19.8345C99.365 19.3747 99.3864 18.8735 99.4133 18.3324C99.2215 19.0363 99.0517 19.6366 98.9068 20.1298C98.7619 20.6247 98.6418 21.011 98.5486 21.2887L96.4584 27.4857H94.7304L92.6402 21.2887L91.7589 18.3324C91.7921 18.9421 91.8169 19.4482 91.8342 19.8505C91.8507 20.2527 91.8604 20.5528 91.8604 20.7524Z" fill="white"/>
</svg>
