<svg width="162" height="40" viewBox="0 0 162 40" fill="none" xmlns="http://www.w3.org/2000/svg">
<g clip-path="url(#clip0_325_433)">
<path d="M46.7218 17.4531C48.5017 17.4531 49.9955 18.0776 51.1079 19.1622V17.8475H55.7165V31.4548H51.1715V29.91H51.1079C50.1227 31.0275 48.5653 31.8492 46.7218 31.8492C42.8125 31.8492 40.0791 28.6281 40.0791 24.6512C40.0791 20.6742 42.8125 17.4531 46.7218 17.4531ZM48.0885 27.8393C49.8684 27.8393 51.1715 26.5246 51.1715 24.6512C51.1715 22.7777 49.8048 21.4301 48.0885 21.4301C46.3404 21.4301 44.9737 22.7448 44.9737 24.6512C44.9737 26.5246 46.2133 27.8393 48.0885 27.8393Z" fill="#1A4381"/>
<path d="M64.6794 27.8723H70.7818V31.4549H56.9561L63.567 21.4302H58.0685V17.8477H71.2904L64.6794 27.8723Z" fill="#1A4381"/>
<path d="M76.3755 25.3085C76.3755 27.412 78.0918 28.1023 79.2678 28.1023C80.7616 28.1023 81.3972 27.8065 82.5097 26.5903L85.8469 28.2995C84.3531 30.8632 81.9058 31.8492 78.9181 31.8492C74.8816 31.8492 71.5762 28.6281 71.5762 24.6512C71.5762 20.6742 74.8816 17.4531 78.9181 17.4531C82.9864 17.4531 86.0694 19.8853 86.0694 24.6512C86.0694 24.8484 86.0694 25.1442 86.0376 25.2756H76.3755V25.3085ZM81.5562 22.712C81.3337 21.2658 80.3802 20.5098 79.0453 20.5098C77.4561 20.5098 76.5662 21.463 76.5026 22.712H81.5562Z" fill="#1A4381"/>
<path d="M87.2773 17.8475H91.8859V19.8196H91.9495C91.9495 19.8196 93.4115 17.4531 96.0496 17.4531C97.7659 17.4531 98.9736 18.3077 98.9736 18.3077L97.0348 22.2847C97.0348 22.2847 96.1767 21.5287 94.6511 21.5287C92.2673 21.5287 91.9177 23.9281 91.9177 24.2896V31.4548H87.3091V17.8475H87.2773Z" fill="#1A4381"/>
<path d="M101.866 14.955C101.897 10.978 103.773 8.25 107.11 8.25C109.462 8.25 110.924 9.4661 110.924 9.4661L109.303 12.7857C109.303 12.7857 108.667 12.4242 107.936 12.4242C106.76 12.4242 106.506 13.213 106.506 15.0865V17.8474H109.589V21.43H106.474V31.4546H101.866V21.43H99.9268V17.8474H101.866V14.955Z" fill="#1A4381"/>
<path d="M116.804 8.64453H112.195V31.4547H116.804V8.64453Z" fill="#1A4381"/>
<path d="M125.926 17.4531C130.344 17.4531 133.904 20.4112 133.904 24.6512C133.904 28.8254 130.535 31.8492 125.926 31.8492C121.127 31.8492 117.885 28.8582 117.885 24.6512C117.885 20.4112 121.413 17.4531 125.926 17.4531ZM125.894 27.8393C127.674 27.8393 128.977 26.5246 128.977 24.6512C128.977 22.7777 127.61 21.4301 125.894 21.4301C124.146 21.4301 122.779 22.7448 122.779 24.6512C122.779 26.5246 124.019 27.8393 125.894 27.8393Z" fill="#1A4381"/>
<path d="M141.563 17.4531C143.343 17.4531 144.837 18.0776 145.949 19.1622V17.8475H150.558V31.4548H146.013V29.91H145.949C144.964 31.0275 143.407 31.8492 141.563 31.8492C137.654 31.8492 134.921 28.6281 134.921 24.6512C134.952 20.6742 137.686 17.4531 141.563 17.4531ZM142.962 27.8393C144.774 27.8393 146.045 26.5246 146.045 24.6512C146.045 22.7777 144.678 21.4301 142.962 21.4301C141.214 21.4301 139.847 22.7448 139.847 24.6512C139.847 26.5246 141.087 27.8393 142.962 27.8393Z" fill="#1A4381"/>
<path d="M154.054 12.7861H158.663V17.8478H161.46V21.4303H158.663V25.736C158.663 27.0179 158.981 27.6095 159.712 27.6095C160.316 27.6095 160.856 27.1822 160.856 27.1822L162 30.962C162 30.962 160.506 31.8165 158.631 31.8165C154.976 31.8165 154.086 29.0228 154.086 26.6234V21.4303H152.147V17.8478H154.086V12.7861H154.054Z" fill="#1A4381"/>
<path d="M27.2384 14.3961L26.7298 8.90715L0 0L3.40082 37.7321L11.9823 35.6286L9.53502 8.51274L27.2384 14.3961Z" fill="#1A4381"/>
<path d="M33.4998 34.7745L31.847 15.9413L27.2385 14.3965L28.7323 31.4877L11.9824 35.629L12.3956 40.0004L33.4998 34.7745Z" fill="#1A4381"/>
</g>
<defs>
<clipPath id="clip0_325_433">
<rect width="162" height="40" fill="white"/>
</clipPath>
</defs>
</svg>
