<svg width="138" height="104" viewBox="0 0 138 104" fill="none" xmlns="http://www.w3.org/2000/svg">
<path d="M64.0472 11.1607C69.0935 12.2662 69.2038 12.3214 69.2314 13.0123C69.2314 13.3992 69.3969 15.4167 69.5623 17.4618L69.8932 21.1928L72.568 22.6575L75.2704 24.1222L79.2965 21.9942L83.3225 19.8662L87.2934 23.8459C89.4718 26.0291 91.2642 27.9084 91.2642 28.019C91.2642 28.1572 90.3542 29.9535 89.2512 32.0539L87.2382 35.8953L88.5618 38.2168C89.2788 39.4881 89.9682 40.6764 90.0785 40.8699C90.2164 41.0634 91.8158 41.3397 94.2975 41.5332C96.5036 41.7266 98.5442 41.9754 98.8751 42.0859C99.3163 42.2517 99.5369 42.6939 99.7851 44.0481C99.9781 45.0154 100.199 46.0656 100.281 46.4248L100.419 47.0328L92.643 46.9776L84.8943 46.8946L83.9567 44.7943C79.8755 35.5361 71.6581 28.544 61.8688 26.0568C51.1143 23.3208 39.3671 26.2779 31.3427 33.795L29.0815 35.8953L21.9119 33.0488C17.9686 31.5012 14.7698 30.0917 14.7974 29.9259C14.9628 29.2902 17.748 25.7251 18.0237 25.8357C18.1892 25.8909 20.147 26.5542 22.3531 27.2728L26.4067 28.627L27.6751 27.4939C28.3645 26.8859 29.5778 25.9462 30.3224 25.4487L31.7287 24.5091L31.5357 19.728C31.4254 17.1302 31.3978 14.9746 31.4806 14.9746C31.5633 14.9746 33.9624 14.1178 36.8302 13.04C39.6981 11.9898 42.0971 11.216 42.2074 11.3265C42.2902 11.4371 43.5035 13.04 44.9098 14.8916L47.4743 18.2633L50.2595 18.0975C51.8037 18.0146 53.21 17.8211 53.4031 17.6829C53.5685 17.5447 54.6716 15.7484 55.8297 13.7033C57.2361 11.2436 58.0909 9.99999 58.3942 9.99999C58.6424 9.99999 61.1794 10.5251 64.0472 11.1607ZM54.0373 14.8087C54.0373 14.8916 53.7891 15.3615 53.4858 15.8865C52.9618 16.7433 52.7964 16.8538 51.2246 17.0197C48.2189 17.3237 47.8604 17.2683 47.171 16.3287C46.8125 15.8589 46.6195 15.4168 46.7022 15.3338C47.0607 14.9746 54.0373 14.5047 54.0373 14.8087ZM30.7084 22.4917C30.929 23.8182 31.1496 23.5419 27.8406 26.1397L26.1309 27.4662L24.9176 27.1346C24.2558 26.9412 23.7042 26.6924 23.7042 26.5542C23.7042 26.1397 29.7709 21.3586 30.35 21.331C30.4603 21.331 30.6257 21.856 30.7084 22.4917ZM58.4494 26.3332C62.0342 26.8859 62.1721 26.9688 62.8339 28.6822C63.1648 29.5666 63.3854 30.2851 63.3303 30.3404C63.2751 30.3957 62.0066 30.1193 60.49 29.7324C50.3146 27.1346 39.3396 30.2852 32.1699 37.8852C23.8697 46.7288 21.7464 59.4693 26.7651 70.2198C27.3718 71.5187 27.7579 72.6518 27.6476 72.7624C27.3442 73.0111 15.1834 77.4329 14.7422 77.4329C14.3562 77.4329 12.4259 72.7347 11.5711 69.6947C10.2474 64.886 9.69592 58.8612 10.1647 54.3565C10.992 46.8118 13.1704 40.4553 16.9759 34.5412L18.1616 32.6895L19.8989 33.3251C20.864 33.7121 23.3734 34.6793 25.4967 35.5084L29.3573 37.0284L31.5633 34.9004C32.8042 33.7121 34.5414 32.2473 35.4239 31.6393C38.9811 29.235 43.9447 27.1899 48.0534 26.4437C50.4801 26.0015 56.0228 25.9462 58.4494 26.3332ZM47.2813 32.3302C47.1986 32.4408 45.9853 32.9106 44.6341 33.4081C32.1148 37.8575 24.9452 51.51 28.1164 64.7202C28.723 67.2351 30.5706 71.3529 32.0045 73.4533C34.4587 77.0184 38.9811 80.8322 42.8692 82.5457C44.8271 83.4024 48.8531 84.6184 49.7907 84.6184C50.2595 84.6184 50.4525 84.7842 50.4525 85.1159C50.4525 85.7792 48.8255 93.7937 48.6601 93.9596C48.4395 94.1807 45.158 93.4621 42.6486 92.6054C37.1887 90.809 32.4733 87.8795 28.3921 83.7893C25.4139 80.8322 22.0497 76.1064 22.6564 75.7471C22.8494 75.6366 24.3109 75.0562 25.9103 74.5035C27.5097 73.9508 28.916 73.398 29.0263 73.2875C29.1366 73.1769 28.7506 72.1544 28.1715 70.9937C26.0482 66.8482 25.083 62.758 25.083 57.9769C25.083 50.7085 27.7303 44.0757 32.7215 38.7419C36.1408 35.0939 39.7808 32.7448 44.3859 31.2524L46.7298 30.4786L47.0883 31.3353C47.2813 31.8051 47.364 32.2473 47.2813 32.3302ZM71.4926 53.7485C71.2168 54.1078 70.1966 55.3514 69.2038 56.5121L67.439 58.6402H59.4145C50.5904 58.6402 50.1767 58.7231 50.1767 60.2707C50.1767 61.6525 50.2595 61.6802 58.5873 61.6802C67.1632 61.6802 68.2663 61.846 70.0862 63.3384C73.0368 65.798 73.0368 70.9384 70.0587 73.2322C67.9629 74.8628 68.4042 74.8075 55.2231 74.8904C48.4946 74.9457 43.0071 74.8904 43.0071 74.7798C43.0071 74.6969 44.0274 73.3704 45.2959 71.878L47.5571 69.142H56.0779C63.6336 69.142 64.6814 69.0867 65.1227 68.6722C65.6742 68.1747 65.7569 67.318 65.3433 66.6547C65.1226 66.2955 63.7439 66.2126 56.7397 66.102C48.798 65.9638 48.3292 65.9362 47.2537 65.3558C42.1247 62.6198 42.5383 55.4343 47.9431 53.4998C48.6877 53.2234 51.7761 53.1405 60.4624 53.1129H71.989L71.4926 53.7485ZM99.206 54.5499C98.5442 55.3514 97.4963 56.5951 96.9172 57.3136L95.8418 58.6402H91.8985H87.9552L87.9 66.71L87.8173 74.8075H84.5082H81.1992L81.1164 66.7376L81.0613 58.6402L76.208 58.5849L71.3823 58.502L73.6435 55.7936L75.9047 53.1129H88.1758H100.419L99.206 54.5499ZM123.665 54.0801C129.677 57.1754 129.374 65.8256 123.141 68.6445C121.79 69.2525 121.377 69.2802 113.959 69.3631L106.155 69.4736V72.2097V74.9457H102.846H99.5369V69.2802V63.6147H109.63H119.722L120.522 62.8133C120.963 62.3711 121.322 61.7354 121.322 61.4038C121.322 60.6023 120.632 59.3034 120.025 59.0271C119.75 58.8889 115.089 58.7231 109.657 58.6402L99.7851 58.502L102.046 55.7936L104.28 53.0852L113.159 53.1681L122.038 53.251L123.665 54.0801Z" fill="#1A4381"/>
<path d="M69.2314 13.0123C69.2038 12.3214 69.0935 12.2662 64.0472 11.1607C61.1794 10.5251 58.6424 9.99999 58.3942 9.99999C58.0909 9.99999 57.2361 11.2436 55.8297 13.7033C54.6716 15.7484 53.5685 17.5447 53.4031 17.6829C53.21 17.8211 51.8037 18.0146 50.2595 18.0975L47.4743 18.2633L44.9098 14.8916C43.5035 13.04 42.2902 11.4371 42.2074 11.3265C42.0971 11.216 39.6981 11.9898 36.8302 13.04C33.9624 14.1178 31.5633 14.9746 31.4806 14.9746C31.3978 14.9746 31.4254 17.1302 31.5357 19.728L31.7287 24.5091L30.3224 25.4487C29.5778 25.9462 28.3645 26.8859 27.6751 27.4939L26.4067 28.627L22.3531 27.2728C20.147 26.5542 18.1892 25.8909 18.0237 25.8357C17.748 25.7251 14.9628 29.2902 14.7974 29.9259C14.7698 30.0917 17.9686 31.5012 21.9119 33.0488L29.0815 35.8953L31.3427 33.795C39.3671 26.2779 51.1143 23.3208 61.8688 26.0568C71.6581 28.544 79.8755 35.5361 83.9567 44.7943L84.8943 46.8946L92.643 46.9776L100.419 47.0328L100.281 46.4248C100.199 46.0656 99.9781 45.0154 99.7851 44.0481C99.5369 42.6939 99.3163 42.2517 98.8751 42.0859C98.5442 41.9754 96.5036 41.7266 94.2975 41.5332C91.8158 41.3397 90.2164 41.0634 90.0785 40.8699C89.9682 40.6764 89.2788 39.4881 88.5618 38.2168L87.2382 35.8953L89.2512 32.0539C90.3542 29.9535 91.2642 28.1572 91.2642 28.019C91.2642 27.9084 89.4718 26.0291 87.2934 23.8459L83.3225 19.8662L79.2965 21.9942L75.2704 24.1222L72.568 22.6575L69.8932 21.1928L69.5623 17.4618L69.5312 17.0778C69.3768 15.1701 69.2314 13.375 69.2314 13.0123Z" fill="#1A4381"/>
<path d="M53.4858 15.8865C53.7891 15.3615 54.0373 14.8916 54.0373 14.8087C54.0373 14.5047 47.0607 14.9746 46.7022 15.3338C46.6195 15.4168 46.8125 15.8589 47.171 16.3287C47.8604 17.2683 48.2189 17.3237 51.2246 17.0197C52.7964 16.8538 52.9618 16.7433 53.4858 15.8865Z" fill="#1A4381"/>
<path d="M27.8406 26.1397C31.1496 23.5419 30.929 23.8182 30.7084 22.4917C30.6257 21.856 30.4603 21.331 30.35 21.331C29.7709 21.3586 23.7042 26.1397 23.7042 26.5542C23.7042 26.6924 24.2558 26.9412 24.9176 27.1346L26.1309 27.4662L27.8406 26.1397Z" fill="#1A4381"/>
<path d="M62.8339 28.6822C62.1721 26.9688 62.0342 26.8859 58.4494 26.3332C56.0228 25.9462 50.4801 26.0015 48.0534 26.4437C43.9447 27.1899 38.9811 29.235 35.4239 31.6393C34.5414 32.2473 32.8042 33.7121 31.5633 34.9004L29.3573 37.0284L25.4967 35.5084C23.3734 34.6793 20.864 33.7121 19.8989 33.3251L18.1616 32.6895L16.9759 34.5412C13.1704 40.4553 10.992 46.8118 10.1647 54.3565C9.69592 58.8612 10.2474 64.886 11.5711 69.6947C12.4259 72.7347 14.3562 77.4329 14.7422 77.4329C15.1834 77.4329 27.3442 73.0111 27.6476 72.7624C27.7579 72.6518 27.3718 71.5187 26.7651 70.2198C21.7464 59.4693 23.8697 46.7288 32.1699 37.8852C39.3396 30.2852 50.3146 27.1346 60.49 29.7324C62.0066 30.1193 63.2751 30.3957 63.3303 30.3404C63.3854 30.2851 63.1648 29.5666 62.8339 28.6822Z" fill="#1A4381"/>
<path d="M44.6341 33.4081C45.9853 32.9106 47.1986 32.4408 47.2813 32.3302C47.364 32.2473 47.2813 31.8051 47.0883 31.3353L46.7298 30.4786L44.3859 31.2524C39.7808 32.7448 36.1408 35.0939 32.7215 38.7419C27.7303 44.0757 25.083 50.7085 25.083 57.9769C25.083 62.758 26.0482 66.8482 28.1715 70.9937C28.7506 72.1544 29.1366 73.1769 29.0263 73.2875C28.916 73.398 27.5097 73.9508 25.9103 74.5035C24.3109 75.0562 22.8494 75.6366 22.6564 75.7471C22.0497 76.1064 25.4139 80.8322 28.3921 83.7893C32.4733 87.8795 37.1887 90.809 42.6486 92.6054C45.158 93.4621 48.4395 94.1807 48.6601 93.9596C48.8255 93.7937 50.4525 85.7792 50.4525 85.1159C50.4525 84.7842 50.2595 84.6184 49.7907 84.6184C48.8531 84.6184 44.8271 83.4024 42.8692 82.5457C38.9811 80.8322 34.4587 77.0184 32.0045 73.4533C30.5706 71.3529 28.723 67.2351 28.1164 64.7202C24.9452 51.51 32.1148 37.8575 44.6341 33.4081Z" fill="#1A4381"/>
<path d="M69.2038 56.5121C70.1966 55.3514 71.2168 54.1078 71.4926 53.7485L71.989 53.1129H60.4624C51.7761 53.1405 48.6877 53.2234 47.9431 53.4998C42.5383 55.4343 42.1247 62.6198 47.2537 65.3558C48.3292 65.9362 48.798 65.9638 56.7397 66.102C63.7439 66.2126 65.1226 66.2955 65.3433 66.6547C65.7569 67.318 65.6742 68.1747 65.1227 68.6722C64.6814 69.0867 63.6336 69.142 56.0779 69.142H47.5571L45.2959 71.878C44.0274 73.3704 43.0071 74.6969 43.0071 74.7798C43.0071 74.8904 48.4946 74.9457 55.2231 74.8904C68.4042 74.8075 67.9629 74.8628 70.0587 73.2322C73.0368 70.9384 73.0368 65.798 70.0862 63.3384C68.2663 61.846 67.1632 61.6802 58.5873 61.6802C50.2595 61.6802 50.1767 61.6525 50.1767 60.2707C50.1767 58.7231 50.5904 58.6402 59.4145 58.6402H67.439L69.2038 56.5121Z" fill="#1A4381"/>
<path d="M96.9172 57.3136C97.4963 56.5951 98.5442 55.3514 99.206 54.5499L100.419 53.1129H88.1758H75.9047L73.6435 55.7936L71.3823 58.502L76.208 58.5849L81.0613 58.6402L81.1164 66.7376L81.1992 74.8075H84.5082H87.8173L87.9 66.71L87.9552 58.6402H91.8985H95.8418L96.9172 57.3136Z" fill="#1A4381"/>
<path d="M123.141 68.6445C129.374 65.8256 129.677 57.1754 123.665 54.0801L122.038 53.251L113.159 53.1681L104.28 53.0852L102.046 55.7936L99.7851 58.502L109.657 58.6402C115.089 58.7231 119.75 58.8889 120.025 59.0271C120.632 59.3034 121.322 60.6023 121.322 61.4038C121.322 61.7354 120.963 62.3711 120.522 62.8133L119.722 63.6147H109.63H99.5369V69.2802V74.9457H102.846H106.155V72.2097V69.4736L113.959 69.3631C121.377 69.2802 121.79 69.2525 123.141 68.6445Z" fill="#1A4381"/>
<path d="M64.0472 11.1607C69.0935 12.2662 69.2038 12.3214 69.2314 13.0123C69.2314 13.3992 69.3969 15.4167 69.5623 17.4618L69.8932 21.1928L72.568 22.6575L75.2704 24.1222L79.2965 21.9942L83.3225 19.8662L87.2934 23.8459C89.4718 26.0291 91.2642 27.9084 91.2642 28.019C91.2642 28.1572 90.3542 29.9535 89.2512 32.0539L87.2382 35.8953L88.5618 38.2168C89.2788 39.4881 89.9682 40.6764 90.0785 40.8699C90.2164 41.0634 91.8158 41.3397 94.2975 41.5332C96.5036 41.7266 98.5442 41.9754 98.8751 42.0859C99.3163 42.2517 99.5369 42.6939 99.7851 44.0481C99.9781 45.0154 100.199 46.0656 100.281 46.4248L100.419 47.0328L92.643 46.9776L84.8943 46.8946L83.9567 44.7943C79.8755 35.5361 71.6581 28.544 61.8688 26.0568C51.1143 23.3208 39.3671 26.2779 31.3427 33.795L29.0815 35.8953L21.9119 33.0488C17.9686 31.5012 14.7698 30.0917 14.7974 29.9259C14.9628 29.2902 17.748 25.7251 18.0237 25.8357C18.1892 25.8909 20.147 26.5542 22.3531 27.2728L26.4067 28.627L27.6751 27.4939C28.3645 26.8859 29.5778 25.9462 30.3224 25.4487L31.7287 24.5091L31.5357 19.728C31.4254 17.1302 31.3978 14.9746 31.4806 14.9746C31.5633 14.9746 33.9624 14.1178 36.8302 13.04C39.6981 11.9898 42.0971 11.216 42.2074 11.3265C42.2902 11.4371 43.5035 13.04 44.9098 14.8916L47.4743 18.2633L50.2595 18.0975C51.8037 18.0146 53.21 17.8211 53.4031 17.6829C53.5685 17.5447 54.6716 15.7484 55.8297 13.7033C57.2361 11.2436 58.0909 9.99999 58.3942 9.99999C58.6424 9.99999 61.1794 10.5251 64.0472 11.1607ZM54.0373 14.8087C54.0373 14.8916 53.7891 15.3615 53.4858 15.8865C52.9618 16.7433 52.7964 16.8538 51.2246 17.0197C48.2189 17.3237 47.8604 17.2683 47.171 16.3287C46.8125 15.8589 46.6195 15.4168 46.7022 15.3338C47.0607 14.9746 54.0373 14.5047 54.0373 14.8087ZM30.7084 22.4917C30.929 23.8182 31.1496 23.5419 27.8406 26.1397L26.1309 27.4662L24.9176 27.1346C24.2558 26.9412 23.7042 26.6924 23.7042 26.5542C23.7042 26.1397 29.7709 21.3586 30.35 21.331C30.4603 21.331 30.6257 21.856 30.7084 22.4917ZM58.4494 26.3332C62.0342 26.8859 62.1721 26.9688 62.8339 28.6822C63.1648 29.5666 63.3854 30.2851 63.3303 30.3404C63.2751 30.3957 62.0066 30.1193 60.49 29.7324C50.3146 27.1346 39.3396 30.2852 32.1699 37.8852C23.8697 46.7288 21.7464 59.4693 26.7651 70.2198C27.3718 71.5187 27.7579 72.6518 27.6476 72.7624C27.3442 73.0111 15.1834 77.4329 14.7422 77.4329C14.3562 77.4329 12.4259 72.7347 11.5711 69.6947C10.2474 64.886 9.69592 58.8612 10.1647 54.3565C10.992 46.8118 13.1704 40.4553 16.9759 34.5412L18.1616 32.6895L19.8989 33.3251C20.864 33.7121 23.3734 34.6793 25.4967 35.5084L29.3573 37.0284L31.5633 34.9004C32.8042 33.7121 34.5414 32.2473 35.4239 31.6393C38.9811 29.235 43.9447 27.1899 48.0534 26.4437C50.4801 26.0015 56.0228 25.9462 58.4494 26.3332ZM47.2813 32.3302C47.1986 32.4408 45.9853 32.9106 44.6341 33.4081C32.1148 37.8575 24.9452 51.51 28.1164 64.7202C28.723 67.2351 30.5706 71.3529 32.0045 73.4533C34.4587 77.0184 38.9811 80.8322 42.8692 82.5457C44.8271 83.4024 48.8531 84.6184 49.7907 84.6184C50.2595 84.6184 50.4525 84.7842 50.4525 85.1159C50.4525 85.7792 48.8255 93.7937 48.6601 93.9596C48.4395 94.1807 45.158 93.4621 42.6486 92.6054C37.1887 90.809 32.4733 87.8795 28.3921 83.7893C25.4139 80.8322 22.0497 76.1064 22.6564 75.7471C22.8494 75.6366 24.3109 75.0562 25.9103 74.5035C27.5097 73.9508 28.916 73.398 29.0263 73.2875C29.1366 73.1769 28.7506 72.1544 28.1715 70.9937C26.0482 66.8482 25.083 62.758 25.083 57.9769C25.083 50.7085 27.7303 44.0757 32.7215 38.7419C36.1408 35.0939 39.7808 32.7448 44.3859 31.2524L46.7298 30.4786L47.0883 31.3353C47.2813 31.8051 47.364 32.2473 47.2813 32.3302ZM71.4926 53.7485C71.2168 54.1078 70.1966 55.3514 69.2038 56.5121L67.439 58.6402H59.4145C50.5904 58.6402 50.1767 58.7231 50.1767 60.2707C50.1767 61.6525 50.2595 61.6802 58.5873 61.6802C67.1632 61.6802 68.2663 61.846 70.0862 63.3384C73.0368 65.798 73.0368 70.9384 70.0587 73.2322C67.9629 74.8628 68.4042 74.8075 55.2231 74.8904C48.4946 74.9457 43.0071 74.8904 43.0071 74.7798C43.0071 74.6969 44.0274 73.3704 45.2959 71.878L47.5571 69.142H56.0779C63.6336 69.142 64.6814 69.0867 65.1227 68.6722C65.6742 68.1747 65.7569 67.318 65.3433 66.6547C65.1226 66.2955 63.7439 66.2126 56.7397 66.102C48.798 65.9638 48.3292 65.9362 47.2537 65.3558C42.1247 62.6198 42.5383 55.4343 47.9431 53.4998C48.6877 53.2234 51.7761 53.1405 60.4624 53.1129H71.989L71.4926 53.7485ZM99.206 54.5499C98.5442 55.3514 97.4963 56.5951 96.9172 57.3136L95.8418 58.6402H91.8985H87.9552L87.9 66.71L87.8173 74.8075H84.5082H81.1992L81.1164 66.7376L81.0613 58.6402L76.208 58.5849L71.3823 58.502L73.6435 55.7936L75.9047 53.1129H88.1758H100.419L99.206 54.5499ZM123.665 54.0801C129.677 57.1754 129.374 65.8256 123.141 68.6445C121.79 69.2525 121.377 69.2802 113.959 69.3631L106.155 69.4736V72.2097V74.9457H102.846H99.5369V69.2802V63.6147H109.63H119.722L120.522 62.8133C120.963 62.3711 121.322 61.7354 121.322 61.4038C121.322 60.6023 120.632 59.3034 120.025 59.0271C119.75 58.8889 115.089 58.7231 109.657 58.6402L99.7851 58.502L102.046 55.7936L104.28 53.0852L113.159 53.1681L122.038 53.251L123.665 54.0801Z" fill="#1A4381"/>
<path d="M69.2314 13.0123C69.2038 12.3214 69.0935 12.2662 64.0472 11.1607C61.1794 10.5251 58.6424 9.99999 58.3942 9.99999C58.0909 9.99999 57.2361 11.2436 55.8297 13.7033C54.6716 15.7484 53.5685 17.5447 53.4031 17.6829C53.21 17.8211 51.8037 18.0146 50.2595 18.0975L47.4743 18.2633L44.9098 14.8916C43.5035 13.04 42.2902 11.4371 42.2074 11.3265C42.0971 11.216 39.6981 11.9898 36.8302 13.04C33.9624 14.1178 31.5633 14.9746 31.4806 14.9746C31.3978 14.9746 31.4254 17.1302 31.5357 19.728L31.7287 24.5091L30.3224 25.4487C29.5778 25.9462 28.3645 26.8859 27.6751 27.4939L26.4067 28.627L22.3531 27.2728C20.147 26.5542 18.1892 25.8909 18.0237 25.8357C17.748 25.7251 14.9628 29.2902 14.7974 29.9259C14.7698 30.0917 17.9686 31.5012 21.9119 33.0488L29.0815 35.8953L31.3427 33.795C39.3671 26.2779 51.1143 23.3208 61.8688 26.0568C71.6581 28.544 79.8755 35.5361 83.9567 44.7943L84.8943 46.8946L92.643 46.9776L100.419 47.0328L100.281 46.4248C100.199 46.0656 99.9781 45.0154 99.7851 44.0481C99.5369 42.6939 99.3163 42.2517 98.8751 42.0859C98.5442 41.9754 96.5036 41.7266 94.2975 41.5332C91.8158 41.3397 90.2164 41.0634 90.0785 40.8699C89.9682 40.6764 89.2788 39.4881 88.5618 38.2168L87.2382 35.8953L89.2512 32.0539C90.3542 29.9535 91.2642 28.1572 91.2642 28.019C91.2642 27.9084 89.4718 26.0291 87.2934 23.8459L83.3225 19.8662L79.2965 21.9942L75.2704 24.1222L72.568 22.6575L69.8932 21.1928L69.5623 17.4618L69.5312 17.0778C69.3768 15.1701 69.2314 13.375 69.2314 13.0123Z" fill="#1A4381"/>
<path d="M53.4858 15.8865C53.7891 15.3615 54.0373 14.8916 54.0373 14.8087C54.0373 14.5047 47.0607 14.9746 46.7022 15.3338C46.6195 15.4168 46.8125 15.8589 47.171 16.3287C47.8604 17.2683 48.2189 17.3237 51.2246 17.0197C52.7964 16.8538 52.9618 16.7433 53.4858 15.8865Z" fill="#1A4381"/>
<path d="M27.8406 26.1397C31.1496 23.5419 30.929 23.8182 30.7084 22.4917C30.6257 21.856 30.4603 21.331 30.35 21.331C29.7709 21.3586 23.7042 26.1397 23.7042 26.5542C23.7042 26.6924 24.2558 26.9412 24.9176 27.1346L26.1309 27.4662L27.8406 26.1397Z" fill="#1A4381"/>
<path d="M62.8339 28.6822C62.1721 26.9688 62.0342 26.8859 58.4494 26.3332C56.0228 25.9462 50.4801 26.0015 48.0534 26.4437C43.9447 27.1899 38.9811 29.235 35.4239 31.6393C34.5414 32.2473 32.8042 33.7121 31.5633 34.9004L29.3573 37.0284L25.4967 35.5084C23.3734 34.6793 20.864 33.7121 19.8989 33.3251L18.1616 32.6895L16.9759 34.5412C13.1704 40.4553 10.992 46.8118 10.1647 54.3565C9.69592 58.8612 10.2474 64.886 11.5711 69.6947C12.4259 72.7347 14.3562 77.4329 14.7422 77.4329C15.1834 77.4329 27.3442 73.0111 27.6476 72.7624C27.7579 72.6518 27.3718 71.5187 26.7651 70.2198C21.7464 59.4693 23.8697 46.7288 32.1699 37.8852C39.3396 30.2852 50.3146 27.1346 60.49 29.7324C62.0066 30.1193 63.2751 30.3957 63.3303 30.3404C63.3854 30.2851 63.1648 29.5666 62.8339 28.6822Z" fill="#1A4381"/>
<path d="M44.6341 33.4081C45.9853 32.9106 47.1986 32.4408 47.2813 32.3302C47.364 32.2473 47.2813 31.8051 47.0883 31.3353L46.7298 30.4786L44.3859 31.2524C39.7808 32.7448 36.1408 35.0939 32.7215 38.7419C27.7303 44.0757 25.083 50.7085 25.083 57.9769C25.083 62.758 26.0482 66.8482 28.1715 70.9937C28.7506 72.1544 29.1366 73.1769 29.0263 73.2875C28.916 73.398 27.5097 73.9508 25.9103 74.5035C24.3109 75.0562 22.8494 75.6366 22.6564 75.7471C22.0497 76.1064 25.4139 80.8322 28.3921 83.7893C32.4733 87.8795 37.1887 90.809 42.6486 92.6054C45.158 93.4621 48.4395 94.1807 48.6601 93.9596C48.8255 93.7937 50.4525 85.7792 50.4525 85.1159C50.4525 84.7842 50.2595 84.6184 49.7907 84.6184C48.8531 84.6184 44.8271 83.4024 42.8692 82.5457C38.9811 80.8322 34.4587 77.0184 32.0045 73.4533C30.5706 71.3529 28.723 67.2351 28.1164 64.7202C24.9452 51.51 32.1148 37.8575 44.6341 33.4081Z" fill="#1A4381"/>
<path d="M69.2038 56.5121C70.1966 55.3514 71.2168 54.1078 71.4926 53.7485L71.989 53.1129H60.4624C51.7761 53.1405 48.6877 53.2234 47.9431 53.4998C42.5383 55.4343 42.1247 62.6198 47.2537 65.3558C48.3292 65.9362 48.798 65.9638 56.7397 66.102C63.7439 66.2126 65.1226 66.2955 65.3433 66.6547C65.7569 67.318 65.6742 68.1747 65.1227 68.6722C64.6814 69.0867 63.6336 69.142 56.0779 69.142H47.5571L45.2959 71.878C44.0274 73.3704 43.0071 74.6969 43.0071 74.7798C43.0071 74.8904 48.4946 74.9457 55.2231 74.8904C68.4042 74.8075 67.9629 74.8628 70.0587 73.2322C73.0368 70.9384 73.0368 65.798 70.0862 63.3384C68.2663 61.846 67.1632 61.6802 58.5873 61.6802C50.2595 61.6802 50.1767 61.6525 50.1767 60.2707C50.1767 58.7231 50.5904 58.6402 59.4145 58.6402H67.439L69.2038 56.5121Z" fill="#1A4381"/>
<path d="M96.9172 57.3136C97.4963 56.5951 98.5442 55.3514 99.206 54.5499L100.419 53.1129H88.1758H75.9047L73.6435 55.7936L71.3823 58.502L76.208 58.5849L81.0613 58.6402L81.1164 66.7376L81.1992 74.8075H84.5082H87.8173L87.9 66.71L87.9552 58.6402H91.8985H95.8418L96.9172 57.3136Z" fill="#1A4381"/>
<path d="M123.141 68.6445C129.374 65.8256 129.677 57.1754 123.665 54.0801L122.038 53.251L113.159 53.1681L104.28 53.0852L102.046 55.7936L99.7851 58.502L109.657 58.6402C115.089 58.7231 119.75 58.8889 120.025 59.0271C120.632 59.3034 121.322 60.6023 121.322 61.4038C121.322 61.7354 120.963 62.3711 120.522 62.8133L119.722 63.6147H109.63H99.5369V69.2802V74.9457H102.846H106.155V72.2097V69.4736L113.959 69.3631C121.377 69.2802 121.79 69.2525 123.141 68.6445Z" fill="#1A4381"/>
</svg>
