<svg width="144" height="25" viewBox="0 0 144 25" fill="none" xmlns="http://www.w3.org/2000/svg">
<path fill-rule="evenodd" clip-rule="evenodd" d="M17.3334 17.8765L18.8 21.07L20.22 24.1451H14.4468L15.8669 21.07L17.3334 17.8765Z" fill="#1E293B"/>
<path fill-rule="evenodd" clip-rule="evenodd" d="M10.7104 1.65374C11.7655 -0.639227 15.5878 -0.461478 16.5899 1.65374L17.353 3.25941C17.5985 2.73209 17.8441 2.19884 18.0896 1.65374C19.1447 -0.639227 22.967 -0.455553 23.9757 1.65374L34.6662 24.1687H29.1982L21.0293 7.02178L20.087 9.0185C22.5224 14.1555 24.7322 19.0199 27.1742 24.145H21.819C20.3259 21.0107 18.8195 17.9119 17.3397 14.8131C15.8599 17.9297 14.3336 21.0166 12.8339 24.1628H7.47871C9.9141 19.0199 12.1571 14.1851 14.5991 9.04813L13.6369 7.02178L5.48793 24.145H0C2.42212 19.0495 8.23521 7.03956 10.7104 1.63004V1.65374Z" fill="#1A4381"/>
<path d="M37.002 24.1451V4.07715H43.7972L47.8716 17.7757L51.9063 4.07715H58.7148V24.1451H54.5009V8.34906L50.035 24.1451H45.6619L41.2158 8.34906V24.1451H37.002ZM63.2272 24.1451V4.07715H79.8901V7.47217H67.7596V11.9218H79.0407V15.2991H67.7596V20.7382H80.2949V24.1214L63.2272 24.1451ZM89.2268 24.1451V7.47217H82.5577V4.07715H100.422V7.47217H93.7857V24.1451H89.2268ZM121.292 24.1451H116.355L114.364 19.5888H105.405L103.554 24.1451H98.7361L107.502 4.07715H112.307L121.305 24.1451H121.292ZM112.937 16.2056L109.838 8.75789L106.799 16.2056H112.937ZM123.76 24.1451V4.07715H128.299V12.9646L137.464 4.07715H143.569L135.108 11.8922L144 24.1451H138.16L131.982 14.7244L128.299 18.0838V24.1451H123.76Z" fill="#1A4381"/>
</svg>
